<svg id="Layer_1" data-name="Layer 1" xmlns="http://www.w3.org/2000/svg" viewBox="0 0 681.73 955.78">
  <defs>
    <style>
      .cls-1 {
        fill: #fff;
        stroke: #000;
        stroke-linecap: round;
        stroke-linejoin: round;
        stroke-width: 0.25px;
      }
    </style>
  </defs>
  <g id="map_kr">
    <g id="loca17_jeju">
      <path class="cls-1" d="M288,914.06l-6.71,2.32H271.18s-2.59,3.87-3.36,3.87-15,5.42-15,5.42-5.42,6.19-6.19,6.45-13.16,10.58-13.16,10.58l-2.07,1.81v8.77s1.81,5.16,2.58,6.19,4.65,2.58,6.71,4.13a45,45,0,0,1,4.13,3.61l4.38,4.9,2.33-3.87L254.4,967h5.16s10.33.26,11.1.26,10.32-.77,10.84,0,6.45,3.61,6.45,3.61l15.22-3.35,5.94-3.36h9.28s7,.26,8-.51,8.51-3.87,8.51-3.87l3.88-.52s1.8-3.35,3.09-4.39,2.32-5.42,2.32-5.42l4.9-4.89s5.17-4.14,5.68-5.68-1-4.13,0-4.9,0-5.94,0-5.94-.51-4.65-.77-5.42-4.64-4.9-5.42-4.9a22.42,22.42,0,0,1-3.87-1.29l-4.9-4.9-4.91-1.55h-9.8s-5.42,1.55-6.19,1.8-14.45.26-14.45.26l-11.09,2.07Z" transform="translate(-160.82 -16.45)"/>
    </g>
    <g id="loca16_busan">
      <path class="cls-1" d="M687,641.6l.3.28,1.29.78a9,9,0,0,1,1.8.77c.26.26,3.1,0,3.1,0l2.33.52,1,2.32v2.58a19,19,0,0,0,1.8,3.09,6.56,6.56,0,0,1,.52,1.81l2.32.52L700,655l-.77.52-2.32.25-1.3.26-.77.78-.52,1-1,4.39-.51,1.8a3.81,3.81,0,0,1-1,.52c-.26,0-1.8.77-1.8,1a11,11,0,0,0,.26,1.29l.51,1.55v.77l-.26,1-.77,1.29-1.29,1.55-.78,1.29-.51,1s-.52,1.29-.26,1.29,0,.78,0,.78l-1,1-1.55.77-1.81,1.29-1.54,1.81-.52,1.55-.78,1a6.67,6.67,0,0,1-1.28.52c-.26,0-2.32-.52-2.32-.52l-2.33-.26-1.54-1h-1.29l-1.3,1-1.29.78-.51,1.54s-.77.78-.52,1,1,1.29,1,1.29l.78,1.54a2.62,2.62,0,0,1,.26.78c0,.26.25,1.8.25,1.8V695H668l-1.81-.26-2.06-.25-1-1.81-1.81-1.55-1-.51H659l-1,.51-.52,1-.52,1-.77,1-1.29.77-.78,1.81s-.25,2.06-.51,2.06-.78,1.29-.78,1.29l-1,1.29-1.29-2.06s-1-.52-1-.78-1.29.26-1.29.52.26,1.55.26,1.55.26,1.29.26,1.55a2.64,2.64,0,0,1-.26.77l-1.55,1.81-1-.26s-1.29.26-1.29.51-1.29.78-1.29.78a3.22,3.22,0,0,1-.52-.78c-.26-.51-1-1-1-1.29V701l-.26-3.62,1.55-3.87,1.29-3.35-.52-2.58-2.58,2.58L639.08,693l-1.29,1.8-2.06-.25-.78-2.07s-1.81-1.29-1.81-.77a12.16,12.16,0,0,1-.77,2.32s-.51.77-1,.77a2.69,2.69,0,0,0-1,.26,7.81,7.81,0,0,1-1.8.52,22.79,22.79,0,0,1-3.35-1.29h-1.69l.78-4.22-2.06-3.35s-2.07-2.32-2.32-2.58-1.81-1.81-1.29-2.06,2.83.25,3.35,0a10.2,10.2,0,0,1,2.84,0h2.84l4.38-1.29s.26-.26,0-1.55-1-3.87-1-3.87a8.8,8.8,0,0,1,.78-1.81,5.52,5.52,0,0,1,1.8-1.55,7.74,7.74,0,0,1,2.33-.51c.77,0,7.47-1.29,7.73-1.29s3.87.77,3.87.77l4.39-2.06,1-1.55.26-.78.78-2.83s2.83-2.58,3.35-2.58a16.13,16.13,0,0,0,2.58-.78l.51-1.29,3.36-1.55,2.32-.77,3.35-.51,1-1.3,1.29-1L673,648l2.06-2.07h4.13s.51.52.78.52,3.09.52,3.09.52a18.09,18.09,0,0,0,1.55-2.33A32.09,32.09,0,0,1,687,641.6Z" transform="translate(-160.82 -16.45)"/>
    </g>
    <g id="loca15_ulsan">
      <path id="_Path_" data-name="&lt;Path&gt;" class="cls-1" d="M701.52,654.27l-2.32-.52a6.56,6.56,0,0,0-.52-1.81,19,19,0,0,1-1.8-3.09v-2.58l-1-2.32-2.33-.52s-2.84.26-3.1,0a9,9,0,0,0-1.8-.77l-1.29-.78-.21-.46.85-2.2s-.26-2.58-.51-2.58a34.85,34.85,0,0,1-3.1-3.1h-2.58l-3.1-2.32-3.87-4.9-2.58-3.62-3.87-3.61-11.09-4.64-1.81-2.07-2.32-3.09-.52-1.29,2.58-2.33a19.33,19.33,0,0,1,2.32-1.28,8.89,8.89,0,0,0,2.33-2.07c0-.26-.26-4.39-.26-4.39l-.77-2.57.61-2.28-.42-.49,4.9-1,3.09-.77,1.55.25v-3.87l2.07-5.41,7-3.36,5.94-.26,3.35.52,3.62-.52,4.38,2.33,1.81,1.8,2.32.77-1,2.33s.51,2.06-.26,2.84-.78,2.06-.26,2.32,5.42,2.84,5.42,2.84,2.06-.52,2.06-.78a14.23,14.23,0,0,1,1.29-2.06l4.13-.52,4.39-1,3.61.77,5.93,2.58,2.59,2.07.45,1a16.07,16.07,0,0,1-.52,1.8l.52,1.55.77,1.55.77,2.07v2.83l-.77,1.55-.77.78.26,2.06.25,1.29.26,2.58-.51,1.81-1.29.77-.52,1.81-.26,1.81-.77,1.54-.51,1.55-.78,1.55-1.29.77-3.1,1.29-1.29-2.32-.26-3.87-1.29-3.1-1,.78s.52,1.81.52,2.06.51,2.84.51,2.84-.25,2.58-.25,3.1-2.07,2.58-2.07,2.58h-1.8l-1.81.25-1,1.81s.78,3.1,1,3.1a5.92,5.92,0,0,1,1,.25V636c0,.25-.77,1-.77,1l-.26,1.29.78,2.58-1,1-1.81,1.55v2.07l1.54.77v1.8l-.51,1.29s-1.55.26-1.81.26-2.06.52-2.06.52l-2.06,1a5.57,5.57,0,0,0-.27,1,1.35,1.35,0,0,1-.77,1,2,2,0,0,0-.77,1" transform="translate(-160.82 -16.45)"/>
    </g>
    <g id="loca14_gyeongnam">
      <path class="cls-1" d="M487.73,525.16s-.78,0-1,.26-.78.77-1,.77-.52.78-.52.78a5.73,5.73,0,0,0-.77,1.28,8.57,8.57,0,0,1-.77,1.55L481,532.13a15.86,15.86,0,0,0-2.84,1.54,2.74,2.74,0,0,1-1,1.55c-.51.26.78.26-1,.78a16.52,16.52,0,0,1-3.87.51l-1.8,1-3.36-.51s-1.55-1-1.55-.26-1.29,2.32-1.29,2.58-.51,2.84-1,3.35-4.38,2.84-4.38,2.84l-5.68,3.87-1.29,1.81-.52,3.61-1.29,4.64-1,3.1-2.32,3.1-2.84,6.45-1.8,2.06,1.29,2.58.51,1-1.8,1.81-1.29,1.29-.52,2.84-1.55,2.58-2.32,2.32,1.29,1.55,3.1,2.58,2.32,3.35.26,1.81,1,2.58.26,2.84-1.55,3.09-.26,2.07,1.81,2.06s2.06,1.55,2.06,1.81-1,2.83-1,2.83l-1,1-2.84,2.83L440,621.14l-1.29,2.58-1,2.06s-.52,1.55-.26,1.55.78,2.06.78,2.06L436.38,632l-.77,1.8-3.35,2.06-1.81-.25v.77l1.29,6.71,2.58,2.84v6.71l2.06,10.32,4.39,3.35,3.35,4.64,2.33,5.68a24.72,24.72,0,0,1,2.31,4.64c.26,1.3,1,1.81,1.29,3.1s1,1.29,1,1.29a25.15,25.15,0,0,1,4.39,2.32c1.29,1,1.55,3.62,1.55,3.62a27.41,27.41,0,0,1,1.29,4.64c0,1-1.8,4.13-1.8,4.13l-3.87,3.35.9.26h.38l1-.26,1.29.52,2.06.26,1.8.51,2.07.78v1.54l2.06-.25s.26-1.55,0-1.81,2.07.52,2.07.52a12.41,12.41,0,0,1,.77,1.8c0,.26,1.81.78,1.81.78l2.58-.26,2.83-1.81,1-2.58,1.55-.77,1.55-1s1-1,1-1.29V698.8c0-.77,1.29,0,1.29,0l1.54,1.29-.25,1.81a8.11,8.11,0,0,0,.77,1.29c.26.25,1.29,0,1.55-.26s1.29,0,1.29,0a8,8,0,0,0,1-1.55c0-.26,1.54,1,1.54,1l1.55.78,1.8-.52,1.81-1a17.83,17.83,0,0,1-.77-2.07,14.79,14.79,0,0,0-1.3-2.06l-1.54-3.35,1-1.55a17.64,17.64,0,0,1,1.81.26c1.54.25,1.29.51,1.8,1s1-.78,1-1-.25-2.07-.25-2.07l1.8-2.58,2.32-1,2.33-.78.77,1.29-.77,1.3-1,1-1.54,2.06-.26,2.58.51,2.33-.51,2.06-1,2.32v.52l1,2.32s.26,1.8.26,2.06a5.59,5.59,0,0,1-.78,1.29l-.77,1-.52,1.54.26,1.3.78,1.8,5.41,2.83,2.32.52,2.07.78a34.37,34.37,0,0,1,1.55,3.1c0,.25.52,1.8.52,2.06s1.28.26,1.54.26a2.53,2.53,0,0,0,.77-.26,16,16,0,0,1,1-1.55c.25-.26,1.54,0,1.54,0h2.58l1.55,1.29,1.55.26.78-1.29s1-1.81.77-2.07.26-2.06.26-2.32a5.6,5.6,0,0,1,.77-1.29,8,8,0,0,1,1.55-1c.26,0,2.06,1,2.06,1.29s2.33-.26,2.58-.52,1.81.26,2.07.26.51,1.81.51,2.06a8.52,8.52,0,0,0,.78,1.55l1,1.81h1.29a12.41,12.41,0,0,0,1.8-.77l1.55-1.3s.52-1.29.78-1.8,1.54-1,1.8-1.29.26-1,.26-1.29a11.16,11.16,0,0,1,1-1.81l1,1.81,1.54,1.8-.51,2.58a6.75,6.75,0,0,1,.51,1.3,11.4,11.4,0,0,1-.25,1.29l-.78.51-2.06.26h-2.32c-.26,0-.78,1.29-.78,1.55s.26,1.8.26,1.8l1.29,1.29,1.29,1,2.32,1s1.81,0,2.06-.26,2.07-1.81,2.07-1.81l1.55.26,1,2.84v1.8c0,.26-.77,1-.77,1l.25,2.06v2.58c0,.26-.51.78-.51.78l-2.58-1.3-2.07-1.28-2.06,1-.51,1,1.28,1.55a19.28,19.28,0,0,0,2.32,1.29,14.15,14.15,0,0,1,2.07,1.8l.52,2.33v.77s.51,1,.77,1,.77,1.55.77,2.32.78,1.29.78,1.55,1.29.78,1.29.78h1.8l1-.78s1-.77,1-1a16.32,16.32,0,0,1,.52-1.81V745a2.71,2.71,0,0,1,.25-.77,3.72,3.72,0,0,0,.52-1,2.62,2.62,0,0,1,.26-.78,11,11,0,0,1-.26-1.29,6,6,0,0,0-.26-1s-.77-1-1-1.29-.26-1.29-.26-1.29l.78-1h1.28l1.81-.26.26-1.54a8.1,8.1,0,0,0,1-1.56,10.84,10.84,0,0,1,.78-2.06,12.27,12.27,0,0,1,1.54-1.8,8.57,8.57,0,0,0,.77-1.55c0-.26-1-1.29-1-1.29l-.77-1.3s-.77-1-1.29-1-.77,1-.77,1.29a8,8,0,0,1-1,1.55,24.26,24.26,0,0,0-.78,2.33c0,.25-1.55.25-1.8.25a1.16,1.16,0,0,1-.78-.77c0-.26.26-2.06.26-2.32a17.83,17.83,0,0,1,.77-2.07v-2.83l1.29-1.29v-2.84l-.77-2.07a6.61,6.61,0,0,0,.51-1.29,7.82,7.82,0,0,1,1.3-1.8c.26-.26,0-1.3,0-1.3l-.52-2.06.52-.51.77-.52h3.35l3.36-.52,1.8-1,1-1.29,1-.77-1-2.07-1-.51-2.06-1.55-.52-1.29-1.81-1.29-2.06.77-4.38.26-3.1.78a17.12,17.12,0,0,0-1,2.83c0,.52-2.58.78-2.84.78h-2.06v-1.55l1.8-1.29,1-1.81v-1.54l2.06-.52s4.13-.77,4.38-.77a5.73,5.73,0,0,0,2.07-1.29c0-.26,2.32-.26,2.32-.26a16.94,16.94,0,0,1,2.84-1c.52,0,.77-1,.77-1.55a4.19,4.19,0,0,0-.77-1.55l-1.29-2.58,3.61.51,2.07-.26,2.57-.51s1,1.29,1,1.81,2.32-.78,2.32-.78l3.1-.77,1.8,1a13.05,13.05,0,0,0,1.81,1.55c.52.26.52,1.81.52,1.81s.25,2.06.25,2.32v1.8l.52,2.07H584l3.36-1,1.8.26a18.47,18.47,0,0,0,1.29-3.62c0-.77-1-1.8-1-1.8l-2.32-2.33-1-2.58.27-2.32-.52-1.8-.51-2.33-.78-1.8-.78-3.36s-.51-2.32-.51-2.58a28,28,0,0,1,1.55-2.84,14.63,14.63,0,0,1,1-1.8,11.89,11.89,0,0,1,2.32-.78l1,1v1.54l-.51,2.33-1,2.06v1.55l2.06,3.61.77,2.06h2.84l2.06.26,1,.78s1.29,1.8,1.54,2.06.78,1.29,1.29,1.81.52-.26.52-.26.26-2.06.26-2.32a5.64,5.64,0,0,1,.77-1.81c.26-.26,1,.26,1,.26s1,1.29,1.29,1.55a6.35,6.35,0,0,1,.26,2.06l-.51,2.06-1,1.81,1.55,1.81h1.81a11,11,0,0,1,1.29.26l1.81,1a11,11,0,0,1,1.29-.26c.25,0,2.06-.26,2.32-.26s1.55.26,1.55.26a17.54,17.54,0,0,0,1.54-1.29,2.54,2.54,0,0,1,1.55-.52l.26,1.29,1,1.81.77,1.29a12.09,12.09,0,0,0,3.62,0l1.29-.26.77-4.64-2.06-3.36s-2.07-2.32-2.32-2.58-1.81-1.8-1.3-2.06,2.84.26,3.36,0a10.2,10.2,0,0,1,2.84,0h2.84l4.38-1.29s.26-.26,0-1.55-1-3.87-1-3.87a9.59,9.59,0,0,1,.77-1.8c.26-.26,1-1.3,1.81-1.55a7.47,7.47,0,0,1,2.32-.52c.78,0,7.49-1.29,7.74-1.29s3.87.77,3.87.77l4.39-2.06,1-1.55.26-.77.77-2.84s2.84-2.58,3.36-2.58a16,16,0,0,0,2.58-.77l.51-1.29,3.35-1.55,2.33-.78,3.35-.51,1-1.29,1.3-1L673,648l2.06-2.06h4.13s.51.51.77.51,3.1.52,3.1.52a17.94,17.94,0,0,0,1.54-2.32,27.26,27.26,0,0,1,2.33-2.84l1-2.58s-.26-2.58-.52-2.58a36.07,36.07,0,0,1-3.09-3.1h-2.58l-3.1-2.32-3.87-4.9-2.58-3.61-3.87-3.62-11.09-4.64-1.81-2.06-2.32-3.1-.52-1.29,2.58-2.32a18.72,18.72,0,0,1,2.33-1.29,8.85,8.85,0,0,0,2.32-2.07c0-.25-.26-4.38-.26-4.38l-.77-2.58.64-2.26-.42-.49-3.84,3.52-4.9-1.29-2.84-3.09-6.19-.26-2.58.26-4.13,2.32-1,2.84h-7L623.7,601l-4.65,1-7.74-3.1-3.09-1.55h-5.68l-7.23-1.8s-3.61,1.54-3.61,0-2.84-3.36-2.84-3.36-3.35-2.84-3.09-3.61-.26-2.07,0-3.1a22.6,22.6,0,0,0,0-4.13c0-.51-2.07-3.09-2.07-3.09s-3.87,3.61-3.87,5.16-2.32,2.06-2.32,2.06h-6.45s-5.42,2.07-6.45,2.07,0,1,0,1l-2.58-.26s-2.83.52-3.09,0-1-1-1.81-2.06a2.17,2.17,0,0,0-1.55-1,27,27,0,0,0-1.55-4.91s-7,.26-7.48.78-4.13-1.55-4.13-1.55l-1.81-.26s-4.9,1.81-6.7,1.81,0-1.29,0-1.29l-2.58-1.55h-3.1l-2.32-2.06,1-1,1.55-1,2.84-2.06,2.58-1v-8.52l-1.29-1s-1.29-2.84-2.07-3.36a1.14,1.14,0,0,1-.51-1.29l-1.55-2.83-1.81-.78s-1.29-1.29-2.83-2.58,0-1.55,0-1.55a29.71,29.71,0,0,1-1.3-2.83,19.73,19.73,0,0,0-1-2.33l-3.35-2.06s-3.61,0-4.13.52-1.29-1-1.29-1L509.14,543s-4.39-1.54-4.39-2.06-2.32-2.84-2.32-2.84l-2.07-1.29S497.27,536,497,536s-1.8-.26-1.8-.26a5.59,5.59,0,0,1-.78-1.29c0-.26-.26-1.55-.26-2.06s-.77-.78-.77-1.3-1.81-.51-1.81-.51-2.06-1.55-2.32-1.81a39.64,39.64,0,0,1-1.54-3.87" transform="translate(-160.82 -16.45)"/>
      <path class="cls-1" d="M602.67,709l-.78,3.09-.25,2.07,1,1,1.81,1.8v2.07L604,722.4l.25,1.55.27,1.81-.78,1.29-1,1v1l-1,.78-1.55,1-.26,1v1.29l1,.51,1.29-.25,1-1.81L605,730.4l2.32.26v1.55s.52,1.29,0,1.54a2,2,0,0,0-.77.78l-.26,1.55s-.52.52-.77.52h-1v1.8l-.78,1s-.52.52-.78.52h-2.06l-.52,1.55,1,1,1.29.77-.26,1.29.77,1.55,1.81,1.29.25,1.29L605,750l-1.81.77-2.32-1-1.29-1.55-.51-2.32-1.81.26-2.07-.26-.77.78V749l-.26,1.29-.77,1-1.81.26-1.8.26-.78.77v1.29l-.51,1.81.77,1.54,1,1L590,759l-1.54.26s-1,.26-1,.52a6.67,6.67,0,0,1-.52,1.28l-.26,1.29v.78l-.51.77-1.3.78-1.28.51a3.81,3.81,0,0,1-1,.52c-.25,0-1.8-.26-1.8-.26s-1.29-.26-1.55-.26-.77-.51-.77-.51l-.52-.78v-1l.52-.77.77-.26,1.55-.52,1-.51.25-.26v-1l-1.28-.26-1-.77-1-.26v-.78l-.25-1,.25-.77s.26-1,.52-1a5.6,5.6,0,0,0,1.29-.77l.78-.51.25-.52-.25-.78-.78-.51-2.32-.26h-1.3l-.77-.26-.51-.51v-.78l-.52-.51-1.55-.52.26-.77.52-.52.77-.51,1.55-.26,1.29-.26,1-.52.26-.51.26-.52.51-.77,1.3-2.07.76-1.29s.27-.77,0-.77-.76-.52-.76-.52V736.6l-.52-.78-.52-.51-.77.51-.78,1-1,1.81L576.09,740h-2.84l-.77.77-.77,1.29-1.55,1-1.81-.26-.77-1.8-.78-1.29s-.25-1.29-.25-1.55a12.33,12.33,0,0,0-.78-1.8l-1.29-1.55v-3.61l1-1,.52-1.3.77-1.29.52-.77a4,4,0,0,0,.78-.52.77.77,0,0,1,.51-.26l1.29-.77.52-.77.77-1,.52-.26H573l1.54.77,1.55,1,1.55,1h1l.78-.25.77-.78.52-.26.52.26.76.52.78,1.29.52.77,1,.52h1l1,.77s.25.52.51.52a5.74,5.74,0,0,1,1,.26h.26V727.3a3.88,3.88,0,0,0-.52-1s0-.77-.25-.77-.78-.52-.78-.52l-.77-.51-.52-.52-.26-1v-.77l-.26-1s.26-.77,0-.77-1-.77-1-.77l-.25-.78v-.51l.51-.52a2.64,2.64,0,0,1,.77-.26h1.56l1.28-.52s.52-.77.78-.77a11.47,11.47,0,0,0,1.29-.26l1.54-.51h1.55l.26-.52.26-1.29.51-.52,1-.51,1.29-.26.77-.26.52-.77v-1l-.52-2.07.26-1.29.77-1.29,1-1.29,1.28-.51,1.81-.26,2.06.77,1.55,1,.26,1a2.53,2.53,0,0,0-.26.77c0,.26-1.28,1.29-1.28,1.29Z" transform="translate(-160.82 -16.45)"/>
      <path class="cls-1" d="M523.59,730.53s-4.65-1.29-4.65-1-3.09,0-3.09,0l-1.55,1a6,6,0,0,0-.26,1,11,11,0,0,0,.26,1.29l.51.26,1,.78,3.09.51H521l1-.77,1-.78,1-.26.52-.25v-1.29Z" transform="translate(-160.82 -16.45)"/>
      <polygon class="cls-1" points="364.57 718.21 363.28 719.24 363.02 720.27 362.51 721.56 362.51 723.37 362.76 724.92 363.28 725.69 364.32 725.69 365.6 725.43 366.12 724.92 367.67 724.92 368.96 724.66 369.22 723.63 369.22 722.6 368.7 721.31 367.67 720.27 366.38 719.5 365.86 718.21 365.35 717.95 364.57 718.21"/>
      <polygon class="cls-1" points="331.81 709.69 332.84 709.18 332.84 707.11 333.87 705.56 335.67 705.31 336.45 706.08 337.48 707.11 338.51 707.89 339.54 708.4 340.06 708.66 340.06 709.69 339.29 710.98 338.77 712.27 338.77 713.3 339.29 714.08 340.57 715.37 341.1 716.14 340.83 716.92 339.54 716.92 339.03 717.18 337.22 716.14 334.9 714.86 333.87 714.08 331.81 713.56 329.74 714.08 327.16 714.08 325.35 713.3 324.07 713.05 323.29 711.76 323.03 710.47 323.03 709.43 323.29 707.89 324.58 706.6 325.61 705.05 327.42 704.02 328.45 703.5 328.71 701.95 330.26 700.66 331.54 699.63 333.35 699.37 334.13 699.37 334.38 700.15 334.38 700.92 333.1 702.21 332.32 703.76 331.54 705.56 331.03 706.86 331.29 708.66 331.81 709.69"/>
      <path class="cls-1" d="M462.43,735.69v1.81l.27,1.55.77,1,1,.77.26.77-.26.78-1,1-1,.78-.51.77-.25.78,1.28.77.78.51,1.54.78v.77l.26,1.29.52,1,1,.52,1-.26h2.07l1.29-.26,1-.51,1-1v-1.54l-.52-1-.26-1.55.26-.78.77-.51,2.07-.26,1.28-1h2.59l.51,1v.77a3.84,3.84,0,0,0-.51,1,11,11,0,0,1-.26,1.29l-.52,1.54v.52l-.25,1,.25.52.26.51.26,1.29v1.29l.51,1,2.32.25,2.59.78,1.81-.26,1.28.26,1-.78s.52.52.78.52.51,1,.51,1l1.81.78,1.81.25h.77l.26-1.29-.26-1.54-.77-.78-.26-1v-1.29l.51-.52,1-1,.77-.26.51-.51v-2.58S496,744.21,496,744v-1l.26-1.3.51-1.54s-.26-1,0-1,.78-.78.78-.78l.77-.51.26-1-.26-1-1.29-.52-1.28-.51-1-.77-.77-.26h-2.33l-1.8-.26-1-.78H487l-1.29,1.3-1.8,1.28-1,.78v.77l-1.55-.26-.51-1.29-1-1.54-.26-.78-.52-1-1.29-.51-1.29-.52-.51-.52a2.53,2.53,0,0,1-.26-.77,11,11,0,0,0-.26-1.29v-.52c0-.26-.77-.77-.77-.77l-.27-.78-.51-1.29-.25-1.54.76-1,.27-1,1.8-.26.77-.51.52-.26.26-.77.26-1.29.52-.52.77-1v-.78l-.26-1.29L478.7,713l.25-1.54-2.32-1.55h-3.36l-2.06.26-1.54,1.29-1,1.54-.52,1.3-.51,1.54v.78l-1.81.51-1,.52-.77,1s.25.52,0,.78-1.29,1-1.29,1V722l-.52,1.29-.78.51-1,.52-.26,1v1.55l.26,1.29-.26,1.55.53,1.8.51,2.07Z" transform="translate(-160.82 -16.45)"/>
    </g>
    <g id="loca13_jeonnam">
      <path class="cls-1" d="M430.37,635.19V636l1.29,6.7,2.58,2.84v6.71l2.06,10.32,4.39,3.35,3.35,4.65,2.33,5.68a24.72,24.72,0,0,1,2.31,4.64c.26,1.29,1,1.81,1.3,3.1s1,1.29,1,1.29a25.52,25.52,0,0,1,4.39,2.32c1.28,1,1.54,3.61,1.54,3.61a27.3,27.3,0,0,1,1.29,4.65c0,1-1.8,4.12-1.8,4.12l-3.87,3.36h0l-1.81.26s-.51-1.55-.77-1.29-1.81,1.29-1.81,1.29l-1,1.55-.52,1.29-1.29,1.29-1.55.26-2.06.26-1.29,1.54-.26,1-.77,1-1,.77-2.32-.26-2.33-1s-1.54-.52-1.54-.77a14.36,14.36,0,0,0-1.3-2.07l-1-2.58-1.29.78-1.55.51a4.27,4.27,0,0,0-.77,1.55,16.32,16.32,0,0,1-.52,1.81c0,.25-.77,1.8-.77,2.06s-.26,1.55-.26,1.81a8.31,8.31,0,0,0,1,1.55l.78,1.54,1.28,1.55s.52,1.81.78,1.81a20.28,20.28,0,0,1,2.32,1l1.3.78s.25,1,.51,1,0,.78,0,1a5.74,5.74,0,0,1-.26,1s.52.26.52.51,1,.78,1,.78h3.61l2.58-.78,2.32-1.28L444,722.4l4.39.77,1.55.77,2.32-1.28,1.54-.52,1.56,2.06a12.88,12.88,0,0,1-.52,2.32,17.83,17.83,0,0,0-1.29,3.36v1.55a18.17,18.17,0,0,1-.78,2.06c0,.26-1.8.52-1.8.77v1.55a5.74,5.74,0,0,1-.26,1l-1,1-.52.77v1.8c0,.26-.26,3.1-.26,3.1l-2.57,1.29s-1.3,1.29-1.3,1.55-1.54.78-1.8.78a9,9,0,0,1-2.58-.52c-.26-.26-2.58-1.81-2.58-2.32s-2.06-2.58-2.06-2.58a2,2,0,0,1-.52,1.28,7.52,7.52,0,0,1-1.55,1l-.52,1-1.8.52v1.55a6.54,6.54,0,0,0-.52,1.29,2.64,2.64,0,0,1-.26.77s-1,.77-1,1a4.56,4.56,0,0,1-.51,1.29,3,3,0,0,1-.52.77v2.33l-1,1,.27,1s1,1.29,1.29,1.55l.77.77s-.52,1.29-.26,1.81,1,2.06.77,2.32a5.19,5.19,0,0,1-1.54,1c-.26,0-2.58-.26-2.58-.51a7,7,0,0,0-1.81-2.32c-.51-.26-2.84-1-2.84-1l-2.32.78a3.68,3.68,0,0,1-1.29-1c-.25-.52-1.29-3.62-1.29-3.62l.52-3.09,1.55-2.58a3.67,3.67,0,0,0,1-1c.26-.51.51-.51.26-1l-1-2.06-.25-1.81,1-1,2.06-1,1.55-2.07s-.26-1.29-.26-1.54a11.19,11.19,0,0,0-1-1.81l-.78-1.55-.25-1.29v-.77l-.26-1.81-1.81-1.54a5.72,5.72,0,0,0-1.28-.78,10.77,10.77,0,0,1-1.81-1v-1.81c0-.26.25-2.06.25-2.06l.26-1.29-.51-2.58-1-2.58s-1-1-1-1.29a6.54,6.54,0,0,0-.52-1.29l-1.54.26-1,.51a5.92,5.92,0,0,0-.25,1c0,.26,0,1.55.25,1.55s.26,1,.26,1l.26.78-1,.52-2.32.77s-1.29-.26-1.55,0-1.29,1-1.29,1l-.78.26-1.8-1s-1,0-1.29.26a4.56,4.56,0,0,1-1.29.51l-1.81.26-2.32-.26s-1.55,0-1.55.26-.25.77-.25,1-.26.77.25,1,1.29,1,1.55,1a17.69,17.69,0,0,1,2.07.78l.51.77-.26.77a12.46,12.46,0,0,0-1.29.52c-.51.26-1.29.26-1.54.52a9.84,9.84,0,0,1-1,.77s-2.06,1.81-1.8,1.81.26,1,.26,1l.77.77a3.69,3.69,0,0,0,1,.52,3.74,3.74,0,0,0,.52.78.93.93,0,0,1,.26.77c0,.26.25.51-.26.77a12.46,12.46,0,0,1-1.29.52l-1.29.26s0-.26-.26,0-.26,0-.26.25-.51.78-.51,1a6,6,0,0,1-.26,1v.51c0,.26-.26,2.07-.26,2.07s-.26,1,0,1.29.26,1,.52,1.29,1.8,1,1.8,1.29,1.29.52,1.55.77a16,16,0,0,0,1.55,1l1.29,1.8,1,1.55.77,1,1-.52.51-.25s1-.26,1,0,1,1,1,1.29.25.51.25.77a.9.9,0,0,0,.27.52v.77a1,1,0,0,0,.25.77c.26.26.51,1,.78,1s1,.78,1,.78l.26.52v.77l-.78.78-.51.77.25.77,1,1.29.77.78a4.17,4.17,0,0,1,.51,1.29l.52,1.54v1.3a11.21,11.21,0,0,0-.26,1.28v1l-1,.77-2.32.78-1.29-1-1-1s-.78-.52-1,0-1.56.78-1.56.78a5.74,5.74,0,0,0-1-.26,18.17,18.17,0,0,1-2.06-.78,8,8,0,0,0-1.55-1h-1.55l-1,.52-.77,1V773l1,.51a20.28,20.28,0,0,0,2.32,1,17.46,17.46,0,0,1,2.06.78.51.51,0,0,1,.52.51v1l-.52,1-.77,1a2.53,2.53,0,0,1-.26,1c-.25.52-1.29,1-1.29,1.29s-1,.78-1,.78-1,.26-1,.51-1,1-1,1l-2.07.51-1,2.06-.51,1s-1.3.77-1.3,1-.25,1,0,1.29,0,1.55,0,1.55l-1,.26s-1.8-.52-2.06-.52-1.81-.52-2.07-.52-1.28-.26-1.28.26-.26,1.29-.26,1.55v1c0,.26-1,1.29-1,1.29l-1.3-.52s-1.29-.25-1.29-.51-.77-1.29-.77-1.55,0-2.06-.51-2.32-.78-1-1.3-1a5.16,5.16,0,0,1-1.54-.52.25.25,0,0,1-.26-.26v-1.8c0-.78-.26-2.07-.26-2.32a18.72,18.72,0,0,0-1.29-2.33s-.51-.77-1-.77-2.07-.26-2.07-.26a8.47,8.47,0,0,1-1.28-.77,14.92,14.92,0,0,0-1.81-1h-1.29s-1.29-.26-1.55-.26a18,18,0,0,1-2.32-1.8s-1,0-1.29.26a9,9,0,0,1-1.55.77,6.54,6.54,0,0,1-1.29.52H353a6,6,0,0,1-1.8-.78s-1-1-1-1.29a4.2,4.2,0,0,0-.77-1.54c-.26-.26-1.55-.78-1.55-1s.52-2.33.52-2.33l.77-1,2.33-1,1.8-1,1-2.33,1-1.29,1-.51.52-.26.25-1,2.07-2.84,1.8-1.81s.26-.26.78.26a4.19,4.19,0,0,1,.77,2.07,11.47,11.47,0,0,1-.26,1.29l-.51,1.8-.52,1v1.55l.52,1s.51.78,1,.78,1.29-.78,1.54-.78,1.3,0,1.3-.26.77-.77.77-.77,1-2.58,1.29-2.58S369,761.1,369,761.1l.26-2.07v-1.55l-.77-.77-1-1.55v-1.55c0-.25.52-2.32.52-2.32l.78-.77a5.6,5.6,0,0,0,.77-1.29c0-.26.26-2.32.26-2.32L371,745.1l2.06-1,1.29.26s.77.51.77.77.26,1.55.26,1.55l.26,2.06v2.84l.51,1.29s.52.77.78.77a9,9,0,0,0,2.58-.25c.26-.26,2.32-.52,2.32-.78s1.29-1,1.29-1,.78-2.32.78-2.58.25-2.32.25-2.32l.52-1.81v-1.29l-.26-2.06-1-2.07-1.29-1.29h-2.06l-1.29,1.55-1.55.26-2.07-.52-1.29-.51-1-2.32-1.29-.26-2.06-.26-2.58,1.81-.78,1.29-.51,1.54-.78,2.58a3.81,3.81,0,0,0-.52,1c0,.26-1,1-1,1l-2.06,1-1.29.78-2.32-.52s-2.33-.78-2.58-.78-1.29-.77-1.55-.77-1.8.77-2.06.77a12.89,12.89,0,0,0-2.07,1.81L348.06,749s-2.58.26-2.83.26a7.69,7.69,0,0,0-2.07,1c-.26.26-1.81,1.29-1.81,1.29l-.26,1.55-.77.77-1,.78-1,.77-2.57.26a3.41,3.41,0,0,0-1.29.26c-.52.25-1.29.51-1.29.51l-1.55.26-.77.77-.26.78s-.26.52,0,.77a.81.81,0,0,1,.26.52l.51,1.29-.51,1s-.78.77-.78,1-.51.78-.51.78-.78.51-.78.77a8.57,8.57,0,0,1-.77,1.55v1l.25,1s.27.52.52.52.78.26.78.51v.52a26.59,26.59,0,0,0-1,2.58c0,.26-1,.78-1,.78h-1.29a2.53,2.53,0,0,1-.77.26,3.75,3.75,0,0,0-1,.51l-.27.77V775l.52,1.29v1a2.59,2.59,0,0,1-.25.77l-.27.78v.52l.52,1.29.52.77.26.78v1l-.26,1.29-1,.26h-.77a1.94,1.94,0,0,1-1-.52c-.26-.26-.77-.77-.77-.52a6.54,6.54,0,0,1-.52,1.29,1.28,1.28,0,0,1-.26.78,1.34,1.34,0,0,0-.51,1,11,11,0,0,1-.26,1.29c0,.26-1,.77-1,.77h-1l-1.8-1s-.52-.51-.77-.51a5.51,5.51,0,0,1-1-.26h-.52l-2.07-.26-1.55.26a1.78,1.78,0,0,0-.51,1v1.55l-.26,1.29s-1,0-1.29-.26S306,790.25,306,790s-1-.77-1.29-1.29-.52-1.54-1-1.54a14.48,14.48,0,0,1-1.8-.26s-2.58-.26-2.58-.52-.78-1.29-.78-1.54-.77-1.29-1-1.29a1.78,1.78,0,0,1-1.81-1.81v-1.55l1-2.58L297,775l.51-3.61.52-2.07,1-4.9v-3.09l-.78-2.33-.77-2.32s.26-.77,0-1-1.29-1-1.29-1l-1.55,1-1.54,1v1.81c0,.26.77,3.35.77,3.35l-.26,4.13.78,6.45-.26,1.29-1,1.8-1.3,2.33a10,10,0,0,0-1,.77,9,9,0,0,0-.77,1.55l-1.29.77-3.1.26h-1.81s-1,.26-1,.78a3.68,3.68,0,0,0,.52,1.8c.26.26,1,1,1,1.29s.52,1,.52,1.29v1.29l-.52.52-2.58-.26-1.29-.77-.51.77-.52.77.26,1.81a6.54,6.54,0,0,1-1.29.52c-.26,0-1.81-.26-1.81-.26l-1,.26-2.58,1.8-1.55,1.29-.25,1h-1.3l-.77,1.3-1.29.77.26,1.55-.26.51.26,1.81-1.29.77-.78,1.29-1,1-.78,1.3s-.78.77-.78,1-.25.51-.25.77a5.92,5.92,0,0,0,.25,1l-.25,1.29-1.81.52s-1.55,0-1.81-.26a3.32,3.32,0,0,0-1.29-.77c-.26,0-1.54,0-1.54.26s-.78,1-.78,1.29-1,.51-1,.51l-1.8-.26-1-.51-.25-2.07a12.83,12.83,0,0,1,.51-2.32,16.64,16.64,0,0,0,.52-2.84s.51-1,.26-1.29l-1.29-1.29-2.33-.51-3.35-.26-1-1.29.25-1.81,1.55-1.8a14.92,14.92,0,0,0,1.81-1,15.64,15.64,0,0,0,1-2.32l1-1.29,1.55-1.55.26-1.54-.52-1a3.59,3.59,0,0,0-1.8,0c-1,.26-3.1-.77-3.1-.77l-1.29-1.55v-1l.51-1.29.52-.77.52-.78v-.51l-.78-2.59a2.91,2.91,0,0,1,0-1.54,10.24,10.24,0,0,0,.52-1.55l.26-.77.52-1.29s.25-.52-.52-1.29l-1.55-1.55a11.19,11.19,0,0,1-1-1.81c0-.26-1.29-1-1.29-1l-.26-1.29a8,8,0,0,1-1-1.55c0-.26-1.29-1-1.29-1l-.78,1.29-.52,1-1.8.26-1.55.51-1,.26-.78-1s-.51,0-.51-.77a9.07,9.07,0,0,1,.26-1.81l-1.55-2.32-3.61-1.81-2.58.78-1-1.81-1.8-2.32-1-1-1.29-1.55s-.26-2.32,0-2.58a6.56,6.56,0,0,0,.52-1.81v-.77c0-.26-1.55-1.55-1.55-1.55l-1-.77s-1.28-.26-1-.78-.51-1.8,0-2.06.52-1.55.52-1.55v-2.58l-.77-1.29.51-.77,1.29-3.1a7.14,7.14,0,0,1,1.55-.77l1.55-.52v-4.39l1.81-3.86s2.06.51,2.32,1.28a22.55,22.55,0,0,0,1.28,2.58c.52,1,1.3,2.84,1.81,2.84s1.81,4.39,1.81,4.39l-.26,2.06s.26,2.32,0,2.58a9.61,9.61,0,0,0-.26,2.58,32.06,32.06,0,0,1,2.32,3.1c0,.26.26.77.52,1.8a7.29,7.29,0,0,0,1,2.07c.26.52,1.81,3.35,2.33,3.61s1.29.52,1.8.77,1,.78,1.55,1,1.8,1,1.8,1l1.29.77s2.07-.51,1.81-1.29a18.11,18.11,0,0,0-.77-1.8l-.78-.78a6.7,6.7,0,0,0-.51-1.8,2.79,2.79,0,0,1-.78-1.29,8.3,8.3,0,0,1-.26-2.07,14.58,14.58,0,0,1-1.28-.77l-.78-.52-.77.26s-1,0-1.3-.51a2,2,0,0,1-.25-1c0-.26-.77-.77-1.29-1.55a15.9,15.9,0,0,0-1.55-1.8v-1.81l.52-2.06V734a5.21,5.21,0,0,1,.51-1.55s-1-1.29.77-1,2.84-.26,3.62.51a11.12,11.12,0,0,0,2.32,1.81,17.93,17.93,0,0,1,2.32,1.55,8.17,8.17,0,0,0,2.33.77c.25,0,3.09.26,3.09.77s.78.52,1,2.33a10.17,10.17,0,0,0,.78,3.35,15.57,15.57,0,0,1,1,1.55,5.21,5.21,0,0,1,.51,1.55c0,.51.78,1.29.78,1.29l1-3.1v-1.55s-.77-1.55,1,0a6.89,6.89,0,0,1,2.07,2.33,1,1,0,0,0,1,.25,13.57,13.57,0,0,1,2.32-.51l.52-.52v-1l-1.55-1.29-2.84-2.07-1.29-1.54L256,735.81l-1-2.06-1.8-.78-1-.51c-.25,0-2.58-.52-2.58-.52l-2.06-.51-1.81-1s-2.32-1-3.1-1.3a23.33,23.33,0,0,1-2.57-1.29l-1.55-.77-1.81-.78-1-1,.26-1.8a1.24,1.24,0,0,1,0-1,15.34,15.34,0,0,1,1-1.55l1-.78v-3.61c0-.26-.25-2.06-.25-2.06s-.27-.26.25-1,1.8-2.32,1.8-2.32l1-.77,1.29-1,1.81-1,.25-1.81a2.69,2.69,0,0,1-.25-.78,16.72,16.72,0,0,0-.52-1.8l-.78-3.61a9.21,9.21,0,0,0,.26-1.55c0-.52.26-2.58.26-2.58V693l-.26-1.55v-1.29l.26-1.8v-1a7.26,7.26,0,0,0-.26-2.07L242,683.7l-.51-.78-.52.26-1,.52a.51.51,0,0,0-.52.51c0,.52-.51,1.29-.51,1.55s-.27,1.29-.27,1.8-.25,1-.25,1.81v2.06a5.9,5.9,0,0,1-.26,1,2.5,2.5,0,0,0-1,.51,3.08,3.08,0,0,1-1.55.52l-1.81-.77-.25-1.56-1-1a2.11,2.11,0,0,0-1.3,0,4.45,4.45,0,0,1-1.54.26l-.52-1.29a3.44,3.44,0,0,1,.26-1.29,16.09,16.09,0,0,1,1-1.54l-.51-1-.26-1.54.26-.78s-.26-.77.51-.77,1.81-.26,2.32,0a4.7,4.7,0,0,0,1.55.25l1.29-.51,1-1.81-.77-2.06.51-1a2,2,0,0,1,1.3-.51c.77,0-.52-.52,2.05-1a16.5,16.5,0,0,0,3.1-.78.35.35,0,0,1,0-.51l1-1,.25-1.8-2.06-.77a23.74,23.74,0,0,1-2.58-1.29l-1.29-2.33s-1.81-1.29-1.81-1.55,1.55-1.54,1.55-1.54l3.1-.26h.77c.52,0,2.07.26,2.32.26a6.4,6.4,0,0,1,2.07.26,16.58,16.58,0,0,1,2.06,1.8v1.81c0,.25-.51.25-.51.51s-.26,1.55-.26,1.55l1.55,2.33h1a5.2,5.2,0,0,1,.51-2.07,16.26,16.26,0,0,1,1.3-2.07l1.54-.77a8.4,8.4,0,0,0,1.55-2.06l-1-1s-.52-.78,0-1,.77-1.29.77-1.29a1.13,1.13,0,0,0,.26-.77c0-.52-.26-1.55-1-1.55a13.79,13.79,0,0,0-2.06.26s-2.33-.52-2.33-1-.26-2.32-.26-2.32a6.49,6.49,0,0,0-.51-1.81L247.18,653l-.78-.77c-.25-.26-.77-.52-.77-.78a11,11,0,0,0-.26-1.29l-1.29-2.32-.51-1a3.57,3.57,0,0,0-1-1L242,645s-.51-.26,0-.77.51-.78.77-1a10.37,10.37,0,0,1,1-.78l1-1s.26-1.29.26-1.55a3.72,3.72,0,0,0-.52-1h-2.84l-2.07-1-.76-.26-3.1.52-.78-.26s.52-2.32.52-2.58.26-3.1.26-3.1l1.54-.77,1.56.52a.82.82,0,0,1,.25-.52,4.27,4.27,0,0,0,.51-1.29v-3.36l.78-1.29.78-.51,1-.52,2.32-.52a.25.25,0,0,1,.26-.25c.26,0,1.29-.78,1.29-1.29a9.34,9.34,0,0,1,.25-1.55,10.58,10.58,0,0,1,.78-1,6.56,6.56,0,0,0,.52-1.81s0-1.29.26-1.55.25-1.8.25-1.8a3.7,3.7,0,0,1,.52-1C249,613.26,250,612,250,612l1-1.29.26-.26,1.29-.26,1,.52a8.57,8.57,0,0,0,1.55.77c.26,0,.52.77,1,.52s1.8-.78,1.8-.78.26-.77,0-1a15.59,15.59,0,0,0-2.31-1,.51.51,0,0,1-.52-.52,11.47,11.47,0,0,0-.26-1.29,11,11,0,0,0-.26-1.29l-.77-1,.26-2.58,1.55-1.29a10.37,10.37,0,0,0,1.28-1l1.29-1.29,3.88.77.77.26a22.25,22.25,0,0,1,3.1,2.32c1,1,.51,1,.51,1L266,606l.51,2.33a10.64,10.64,0,0,1-.51,1.54c-.26.52,0,.52,0,.52s2.83,1.29,4.12,1.8,0,2.58,0,3.1v1.29a24.69,24.69,0,0,1,0,4.65c-.26,2.06,1,1,1,1L272,622a3.85,3.85,0,0,1,2.06.26l2.33,1.8a6.18,6.18,0,0,0,2.32,0c1-.26.52-.51.52-.51s.25-1.55-.26-1.81-1-2.06-1.55-2.84,2.84-1,2.84-1,1.29.52,2.06.78,1.54,1.54,2.32,2.06a7.19,7.19,0,0,0,2.84.52,13.19,13.19,0,0,0,2.84-1c.77-.51,0-3.35,0-3.87s3.61.26,3.61.26,2.32-.77,3.35-1,1-.52,1-.52l3.36-1s-.52-1.81-1-3.1,0-1,0-1a38.68,38.68,0,0,0,3.61-2.32,14.92,14.92,0,0,1,2.06-2.06c1.55-1.29.26-1,1-2.32s-.26-.78-.26-.78a28.27,28.27,0,0,0-.78-3.35c-.25-.52.52-1.29,1.3-1.55a7.74,7.74,0,0,0,2.06-1.81,29.27,29.27,0,0,1,3.61.52,1.29,1.29,0,0,0,1.29-.26l2.07-2.58,2.58,1,2.06,2.32,4.39,2.07,1.8.77.77.26a6.31,6.31,0,0,1,1,1.55,3.28,3.28,0,0,1,.27,2.06,17.83,17.83,0,0,1,.77,2.07c0,.26.26,2.06.26,2.06l2.58,1.29s2.32,1.81,2.83,1.81a11.91,11.91,0,0,1,2.32.77l1.56-.77a14.48,14.48,0,0,0,1-2.07c.25-.77,0-1,0-1l.77-1.29.26-.77v-.78l1-1a42,42,0,0,1,4.13-3.35c1.29-.78,1.81.25,1.81.25l1,1c.52.51,0,1.8,0,1.8l.77,1.29s.52,1.81.52,2.07a8.57,8.57,0,0,0,.77,1.55l-.25,1.54-.78.78a15.14,15.14,0,0,0-1,2.06V614s.77.26,1,0,1,1,1.29,1.29,1.55,3.61,1.81,3.87,0,2.07,0,2.07l-1,2.06a13.18,13.18,0,0,0-1.28.51c-.52.26-.78,1-1.56,1.55s.52,1.81.78,2.07a11.7,11.7,0,0,0,1.81,1.55,17.47,17.47,0,0,0,2.84.51l1.8,1.81s3.87-.78,4.39-1,4.9-2.58,4.9-2.58l3.1-2.32,1.29.52V628l2.57.26,1.81,1.29.52-1,.77-2.58,3.61,1.55v3.09l6.19,1.55,3.1,1.55,4.39-2.06,3.35-.52s2.84,2.32,3.36,2.58,2.83-.51,2.83-.51l1-2.59,2.07-3.61,1.81-1.81,3.35-.51,3.1-.26H419l2.83,3.1,3.87,3.87Z" transform="translate(-160.82 -16.45)"/>
      <path class="cls-1" d="M227.25,661.28A1.88,1.88,0,0,1,226,660c-.26-1-.78-2.32-.78-2.58s-.77-1-.77-2.07a19.82,19.82,0,0,0-.26-2.58s-1-.77,0-1.29a30.14,30.14,0,0,0,3.1-2.06h1.29s0,.77.52,1,1.8,1,1.8,1a5.29,5.29,0,0,0,1.29.26c.52,0-.51-.51.52,0a2.91,2.91,0,0,1,1.29,1s1.29,0,1.55-.25a4.27,4.27,0,0,0,.51-1.29l1-.78,1-.52s.52-.51.52,0,.51,0,.51,1,.52,1.29,0,1.8a4.81,4.81,0,0,0-1,1.29c-.26.52-1,.78-1,1.29v1.29l-.25,1a5.35,5.35,0,0,1,.25,1.29c0,.51.78.77.26,1l-1.54.77-2.84.52-.52-.26s-1-.26-.51.26.77.51,1,1.29.26.26.26.77-1.55,1.29-1.55,1.29l-3.1.78s-2.32-.26-1.8-1l1-1.54Z" transform="translate(-160.82 -16.45)"/>
      <path class="cls-1" d="M220.28,660a11.26,11.26,0,0,0,1.3-.26c.25,0,1-.77,1-.77s.25-.26,0-.78-.26-.26-1-.77a6.76,6.76,0,0,0-1.81-.78l-2.32-1.29-1.55-1c-.78-.26-2.84,1-2.84,1s1-.51,0,.78a8.7,8.7,0,0,1-2.58,2.06,1.26,1.26,0,0,0,0,1c.26.51,0,1.28.26,1.54s0,.26.77,1,.52,1.81,1,1.81.25-.52,1.28,0,1.56.51,2.07.77a15.88,15.88,0,0,0,2.06,1c.26,0,1.55.77,1.55,1s-.26.26,0,.51,0,.52.52,1.55a20.16,20.16,0,0,0,2.06,2.84s-.77.77.52.52,2.06-.26,2.06-1a8.84,8.84,0,0,1,.26-1.54c0-.26-.26-.26-.52-1.29a6.47,6.47,0,0,0-.77-1.81s1.29-.26,0-1.29-.26-1.29-1.29-1a10,10,0,0,1-2.07.25,11.93,11.93,0,0,1-.25-2.06l-.52-.51Z" transform="translate(-160.82 -16.45)"/>
      <path class="cls-1" d="M206.87,648.89c0,.26-2.07,2.33-2.07,3.1a6.64,6.64,0,0,1-1,2.32,11.18,11.18,0,0,1,0,3.1c-.25,1.29.26,1.81,0,2.58a3.58,3.58,0,0,1-.77,1.29l-2.58.77.51,1.55s0,.26-.51.77-2.06.52-2.06.52l-1.3-.78v-2.06s-.51-.77-1-.77h-2.32c-1.29,0-1.29-.78-1.29-.78V660a21.88,21.88,0,0,0-1-3.1s0-.51.78-.77a7.82,7.82,0,0,0,2.05-1.81s-.51-1,.52-1a14.15,14.15,0,0,1,2.32.26l1-.26,1.54-.77,2.07-.52s-.78-.52.25-1.81.52-1,1-1.29a12.72,12.72,0,0,1,2.32-.77h1.55Z" transform="translate(-160.82 -16.45)"/>
      <path class="cls-1" d="M210.74,665.41s-3.1-.78-3.35-.52-.52-.26-.52.26.52,1.55,0,1.8-.78-1.29-.52,0a5.23,5.23,0,0,0,1.29,2.33l1.55,1a2.94,2.94,0,0,1,1.55,0,1.24,1.24,0,0,0,1,0l2.06.77v.26s.78-.26.52-1.81,0-1.54,0-1.54l-.77-1Z" transform="translate(-160.82 -16.45)"/>
      <path class="cls-1" d="M205.32,670.57h-1.55s-1,0-1.29.77-1,.52-1,1-2.84,1.55-2.84,1.55,0-.26.52.52.51,1.55,1.29,1.55,2.32.25,2.58,0,1-.78,1.29-.52a1.34,1.34,0,0,1,.51,1c0,.52-.51,1.29-.51,1.81s.51,0,0,.51.26,1.55.51,1.81S204,683,204,683s-.51.52-.51.77,1.54.78,1.8,0a4,4,0,0,1,1-1.54,3.7,3.7,0,0,1,1-.52s-.52.26.77.26,2.32.26,2.32-.52v-2.06s-.26-1.29,0-1.55,0-2.58,0-2.58l-.77-.77-.52-1s.26-1.54-.26-1.54a11.71,11.71,0,0,1-2.06-.52Z" transform="translate(-160.82 -16.45)"/>
      <path class="cls-1" d="M193.71,687.08l-.78-1-2.32.26a5.26,5.26,0,0,0,0,2.06,1.62,1.62,0,0,1,0,1.55c-.25.51-.77-.52-1.28,0s-2.59.26-2.59.26h-1.29l-1,1.54-1.29,1-2.58,1-2.32,1.55s-.52,0,0,1a4.35,4.35,0,0,0,3.1,1.8c.77,0,2.06-1,2.58,0A19.55,19.55,0,0,0,186,701s.26-.26,1.55,0,1.29.52,2.32,0a3.84,3.84,0,0,0,1.55-1.55l1.29-1.29,3.61-1.54-.77-2.33-.78-2.32s1.29.26.52-1a11.79,11.79,0,0,1-1-2.06Z" transform="translate(-160.82 -16.45)"/>
      <path class="cls-1" d="M200.68,697.4,199.13,699l-.52,1s.26,1,0,1.29-1.29,1.55-1.29,1.55h-1l-1.55-.78-2.32.78s-1,1.29-1,1.8a4.66,4.66,0,0,0,1.54,2.58c.78.52,1.81.78,2.07,1.81a9.56,9.56,0,0,1,.26,2.06s2.06.78,2.58-.77.26-2.58.77-2.84a16.92,16.92,0,0,0,2.07-1.8s-.52-.52.77-.52,1.81-.52,1.81-.77V702.3l-1-1h1l.77-1a2,2,0,0,0,0-1.29,11.33,11.33,0,0,1-.51-2.06Z" transform="translate(-160.82 -16.45)"/>
      <path class="cls-1" d="M229.06,693l-3.62.78,1.81,2.32,1,1.55-1,1a4.38,4.38,0,0,1-1.81.77,1.83,1.83,0,0,0-.51,1c0,.51-1,0-2.32.77a42.94,42.94,0,0,1-4.9,2.06h-1c1,0,1.81,2.84,2.58,2.84h3.36s-.26-.51,1-.77a10,10,0,0,0,2.84-1.29c1.54.26,2.58-.78,3.35.51s1.55,1,1.81,1.55,1.29,2.32,1.29,2.32l-.78,2.84s1.29,1,1.81.78a21.82,21.82,0,0,0,2.06-1.55l1-2.07s-.51-1.54,0-2.06-1.8-1.55-1.8-1.55l-3.1-.77-2.06-2.84V700l3.1-1.29,2.06-.77-2.32-2.84Z" transform="translate(-160.82 -16.45)"/>
      <path class="cls-1" d="M231.64,713.65S228,715.2,228,715.46a11.16,11.16,0,0,0,1,1.81h1.8l.78-1.81Z" transform="translate(-160.82 -16.45)"/>
      <path class="cls-1" d="M229.83,719.59l-1.81-1a1,1,0,0,0-1.28,1c0,1.29.51,3.09,1.28,3.35a3.82,3.82,0,0,0,1.81,0Z" transform="translate(-160.82 -16.45)"/>
      <path class="cls-1" d="M206.35,712.11h-3.87l-2.32,1.54-3.87.78s-.26,2.06,1.55,2.06-.52-.51,1.29,0,3.61.78,3.61,1.29-.78.78.52.78,3.09-4.91,3.09-4.91Z" transform="translate(-160.82 -16.45)"/>
      <path class="cls-1" d="M178,709.53s-2.83,2.32-3.1,2.58a19.78,19.78,0,0,1-3.61,1.29c-.26,0-3.35.25-3.35.25l-4.13.52L161,716.23l2.06,2.33s-.26,2.06,0,2.32-.52,1.29.51,1.8a19.34,19.34,0,0,1,1.81,1s3.09.25,3.35-.26,1.29-.78,1.29-1.55-1.8-2.84-.51-3.35a23.93,23.93,0,0,0,3.09-1.29c.26-.26,1.29-.78,1.81-.52a3.73,3.73,0,0,1,1,1l1.55-.51.52-1a9.47,9.47,0,0,1,.51-1.54c.26-.52.77-2.07.77-2.07v-1.29Z" transform="translate(-160.82 -16.45)"/>
      <path class="cls-1" d="M175.14,724.23s-2.59.26-2.59.52-.77.77-.77.77-.26.78-1.81.78-3.1-.52-2.83,0-.27,1-.27,1.8a7.58,7.58,0,0,1-.51,2.07v1.29s.26,1.29.78,1.54a8.73,8.73,0,0,1,1.54.78c.26.26,1.55,1,1.29,1.55s2.58.25,2.58.25l.52-.51a23.58,23.58,0,0,1,2.07-1.29s0-1,.51-1,3.61-.52,3.61-.52v-1.81c0-.77-1.29-1.8-1.29-1.8l-.77-.77-1-1s-.26-1.29-.26-1.55S175.14,724.23,175.14,724.23Z" transform="translate(-160.82 -16.45)"/>
      <path class="cls-1" d="M198.35,718l-4.13-.77H191.9l-1.29,1.8a3.71,3.71,0,0,0,.78,1.29c.51.52,1.54,1.81,2.32,2.07s1.29.51,1.55,1.29.26,1.54.51,2.32,2.07.77,2.07,1.29.51-.26,1.55,0,.25-.26,1.8,1.29a26.54,26.54,0,0,1,2.84,2.84c.26.51,1,0,1,0l1.29-1s-.26-1.8,0-1.8.26-2.32.26-2.58-.52-2.58-.52-2.58-1.29-1.55-1.54-1.55a24.2,24.2,0,0,1-2.32-.77l-1.3-1.29-1-1.29Z" transform="translate(-160.82 -16.45)"/>
      <path class="cls-1" d="M200.93,737.39c-1,.52-2.06.78-2.32,1s-3.61.26-3.35.78a8.31,8.31,0,0,0,1,1.55,13.92,13.92,0,0,1,1,1.8s-.52,1.81-.52,2.07-.51,1.29,0,1.54a13,13,0,0,0,3.1.52,4.77,4.77,0,0,0,2.06-.52,3.46,3.46,0,0,1,1.81-.25c.78,0,3.87.25,3.87.25a2,2,0,0,0,.26-1.54,4.87,4.87,0,0,0-1-1.55l-.26-.78-.77-.51.77-1.29v-1a3.28,3.28,0,0,0-1.55-.51c-.77,0-1.54.26-1.54-.26a7.6,7.6,0,0,0-1-2.06Z" transform="translate(-160.82 -16.45)"/>
      <path class="cls-1" d="M182.61,743.84s-1-2.06-1.28-2.06-1.55-.26-1.55,0a3.72,3.72,0,0,1-.52,1v.77c0,.26-.26.78,0,1.29s-.26,1.55,0,1.81.26.77.52,1.55.77,1.29.77,1.55a11.87,11.87,0,0,1-.25,1.29s-.52-.78-.52.51-2.07,2.07-.52,2.32,3.1.52,3.35.52,1.81-.26,1.81-.52,0-1.54.52-1.8.77-.52.77-.78-.77-1.29-.77-1.54-1.29-1.29-1.29-1.29l-.52-1.3-.26-1.28Z" transform="translate(-160.82 -16.45)"/>
      <path class="cls-1" d="M186.74,744.1s-.77,2.32-.77,2.58.26,2.58.77,2.84a8,8,0,0,1,2.07,2.06,4.38,4.38,0,0,1,.26,1.81c0,.51-.78,2.32-1,2.32s0,0-1.29.52-2.83.25-3.35,1a12.89,12.89,0,0,1-1.29,1.55v1.54c0,.26-.26.78.51.78a11,11,0,0,0,3.1-.52l1.55-.77,2.58-2.32,1.29-.78a2,2,0,0,1,0-1.8,7.4,7.4,0,0,0,.77-1.3c.27-.51,1-.51,1-1s.52-2.58,0-3.09a23.44,23.44,0,0,1-1.54-2.58c-.52-.78-.26-1-1.29-1.81a15.43,15.43,0,0,0-2.07-1.29Z" transform="translate(-160.82 -16.45)"/>
      <path class="cls-1" d="M214.87,756a24.2,24.2,0,0,0,1.8,3.09l1.29,2.58-.51,2.07a22.4,22.4,0,0,1-2.58.51h-3.36s-.52-.77-.77.78-2.84,2.84-2.84,2.84h-3.35a10,10,0,0,0-1,2.32c0,.51-6.72,3.35-6.72,3.35l-2.06,2.84-2.06.52a3.75,3.75,0,0,0-.51,1,10.89,10.89,0,0,1-1.3,1.81h-.77s-2.58.51-2.58,1,.51,1.8.51,2.32v1.8s0,1.81.26,1.81a8.52,8.52,0,0,1,1.55.78l.77,1.29s.52.25.52.51a5.6,5.6,0,0,0,.77,1.29l1.29,1.29s-.51,1.81,0,2.32,1,.52,1.55.78a42.73,42.73,0,0,0,4.64.77,9.58,9.58,0,0,1,2.33.52,2.44,2.44,0,0,0,2.32,0c.77-.52,7.74-1.81,7.74-1.81s-.78-1,0-1.29a9.06,9.06,0,0,0,3.35-1.55c1.3-1,4.13-1.29,4.13-1.29s-.51-1.29.26-1.8,2.84-2.33,3.1-2.33a18.64,18.64,0,0,1,2.32,1.56s-.78.77.51.77,1.55-.52,2.07-2.33a4.43,4.43,0,0,1,2.07-2.58l.51-.77s-.51-.52,0-1.8,1-2.84,1-2.84v-3.87s-.51,0,.52-.52,2.32-2.58,1.55-3.35a15.23,15.23,0,0,1-2.07-2.58c-.26-.52-1.54-2.33-1.54-2.33l-.52-1s0-1.81-1-2.06a19.86,19.86,0,0,0-3.35-.26l-1.81-2.58a17.19,17.19,0,0,0-1.8-2.84,8.79,8.79,0,0,1-2.32-.26c-.78-.25-2.84-1.29-2.84-1.29Z" transform="translate(-160.82 -16.45)"/>
      <path class="cls-1" d="M263.89,831.82l.77-1.29s1.81-1.55-.77-2.83-4.65-2.58-4.65-2.58h-2.06L255.89,829s1.55,0,1.29,1-1.81.51-1.29,1.8-.52.78,1.81,1.81,3.09,2.06,4.13,1A16.28,16.28,0,0,0,263.89,831.82Z" transform="translate(-160.82 -16.45)"/>
      <path class="cls-1" d="M263.37,838l-2.06-1.29-5.42-.77-3.09-2.06s-3.1,2.83-3.1,3.35-2.32,3.61-1.81,4.39a3.44,3.44,0,0,0,3.1,1.8c1.81,0,3.61-1.8,5.93-2.83s3.1-2.59,4.13-2.07S263.37,838,263.37,838Z" transform="translate(-160.82 -16.45)"/>
      <path class="cls-1" d="M272.92,832.6l-3.87,1.29s-1,1.29-1,1.8.51,2.84.51,2.84a2.65,2.65,0,0,0-.51,1.81v2.58s1.28,3.35,2.32,3.87,2.84-.52,3.35-2.07-1-6.19-1-6.19-3.09-1.29-2.32-1.55a21,21,0,0,1,3.35-.51c.26,0,1-.78,1-.78L274,832.6Z" transform="translate(-160.82 -16.45)"/>
      <path class="cls-1" d="M285.82,805.25v-2.84l-2.33-3.61a11.24,11.24,0,0,1-2.06-1.81c-.25-.52-3.35-2.58-3.35-2.32s-2.58,2.58-2.58,2.84a42.76,42.76,0,0,1-4.13,3.1s1.29,4.38,1.29,4.64-2.06.25-.52,2.06,6.46,2.33,6.46,2.33.26-1.55.51.51a6.28,6.28,0,0,1-.51,3.35,3.52,3.52,0,0,0,2.83,1.29c1.55,0,3.62-.26,3.87,0a22.76,22.76,0,0,0,3.87.52s.26,0,0-2.32a9.72,9.72,0,0,0-1.54-4.13l-1.3-1.81Z" transform="translate(-160.82 -16.45)"/>
      <path class="cls-1" d="M298.2,791.32a33.48,33.48,0,0,1-3.87-.78l-.51,3.1-2.33,1.55s-1,.51-.51,1.28,1,1.3.78,1.81-1.81,0-1.55.78a7.57,7.57,0,0,0,1.8,2.06,6.17,6.17,0,0,0-.77,1.81,2.32,2.32,0,0,0,1.55,1.54c.51,0,2.06-2.32,2.06-2.32a3.56,3.56,0,0,1,1-1.29c.52-.25,2.32-1.29,2.32-1.29h1c.51,0,1.54-2.06,1.54-2.06s-.51-.78,1-.52,1,0,1.8.52a2.6,2.6,0,0,0,1.55.51c.26,0,1.29-.77.51-1.55s-1.54-1-2.06-1.8a7.17,7.17,0,0,1-.52-2.84s-.51-1.55-.77-1.55h-3.09Z" transform="translate(-160.82 -16.45)"/>
      <path class="cls-1" d="M308.52,797.51s-.77,2.32-.77,2.58-.51,1.29,0,1.55,2.32.77,2.32.77v1.29c0,.52-.77.77.52,1.29s4.64-.52,4.64-.52h2.84s1-1.54.52-2.06a11.66,11.66,0,0,1-1.81-2.32c0-.26-1-.52-1.29-.78a9.91,9.91,0,0,0-1.81-.77l-3.35-1Z" transform="translate(-160.82 -16.45)"/>
      <path class="cls-1" d="M303.11,806s-2.59-.26-2.84.52a7.93,7.93,0,0,1-1,2.06,15.3,15.3,0,0,1-2.07,1l1.55,1.54a2.51,2.51,0,0,0,1.29,1.29c1,.52,2.58,1.55,2.58,1.55a.36.36,0,0,1,.52,0c.25.26,1.54-.52,1.54-.52s-.25-.51.52-.51a7.58,7.58,0,0,1,2.07.51,2,2,0,0,0,1-.77c.25-.52-.26-1,0-1.55a4.18,4.18,0,0,0,0-1.8l-.78-1.81a9,9,0,0,0-1.54-.26,5.29,5.29,0,0,1-1.3-.26l-.51-.25Z" transform="translate(-160.82 -16.45)"/>
      <path class="cls-1" d="M293.05,807.83a1.49,1.49,0,0,0-1.29,1.29,1.86,1.86,0,0,0,.51,1.29,2.57,2.57,0,0,0,.78.77c.55.35,1.49.62,1.8.26s-.09-.53-.26-1.8c-.1-.79,0-1-.26-1.3A1.42,1.42,0,0,0,293.05,807.83Z" transform="translate(-160.82 -16.45)"/>
      <path class="cls-1" d="M303.88,832.6s-1.29,2.32-1.55,2.83S300,837.5,300,837.76a4.56,4.56,0,0,1-.26,1.55c-.26.77-1,2.06,0,2.58a11,11,0,0,0,2.33.77s2.84-1.55,3.09-.77a3.12,3.12,0,0,0,1.29,2.06,5.64,5.64,0,0,0,2.58,1c.26,0,.26-1.29,1-1.55a16.16,16.16,0,0,0,2.84-2.06s.26-2.06-.77-2.58l-2.07-1-.52-1.29,1-1.29.26-2.58-4.65-.52Z" transform="translate(-160.82 -16.45)"/>
      <path class="cls-1" d="M453.27,751.07a9.93,9.93,0,0,0,.51-2.32l-3.61-2.59s-1.54,1-1.29,2.07,1,2.32,1,2.84a7,7,0,0,1,0,2.32c-.25.51-1,1.29-1,1.55a15.62,15.62,0,0,1-1,2.06c-.26.52-3.09,2.06-3.09,2.06a18.74,18.74,0,0,0-2.07,2.33c0,.25-1.29.25-.77,1.8a13.76,13.76,0,0,1,.51,3.61s-1.29,1-.51,1.81a7.43,7.43,0,0,0,3.09,2.32c1.55.52,4.65,1.81,4.65,1.81l3.35.51s2.58-1,2.07-1.54-1.81-1.55-1.81-1.55l-.52-1.29a4.44,4.44,0,0,1,.52-2.07c.51-.77,1.81-2.83,1.81-2.83s.51-.52,0-1.81a20,20,0,0,1-.78-2.32l-.78-1.29L453,757a1.29,1.29,0,0,1-.26-1.29,10,10,0,0,0,0-2.84l-.26-.77Z" transform="translate(-160.82 -16.45)"/>
    </g>
    <g id="loca12_gwangju">
      <path id="_Path_2" data-name="&lt;Path&gt;" class="cls-1" d="M288.45,645.48l6.45-2.06H297v-3.1l5.16-3.1s3.61-.26,3.88,0,0,4.13,0,4.13,2.31,1.55,3.09,1.55-.26-1.81,3.61-1.55S323,639.28,323,639.28l6.2-.77,3.09,3.87,2.06,3.1v4.13l5.42,3.86,2.84,3.36v3.1L340.05,663l-.78,4.13s-3.86,2.84-4.38,2.58-3.87,2.33-3.87,2.33h-4.9l-3.36-2.33-4.13,1.55-4.12.78-3.36,2.32h-5.93s-3.1.25-3.1-1-1-2.84-.25-3.61,2.32-1,1.29-2.32a34,34,0,0,0-4.91-3.87l-7.48-.52s-7,.26-6.19-1,1.8-2.06,2.06-3.1a17,17,0,0,0-.26-4.12s-1.29-2.33.26-2.33,3.87-1.8,3.87-1.8Z" transform="translate(-160.82 -16.45)"/>
    </g>
    <g id="loca11_jeonbuk">
      <path class="cls-1" d="M488.92,503.81v4.65A22.4,22.4,0,0,1,491,511a20.48,20.48,0,0,0,.51,2.06,24.13,24.13,0,0,1,.77,2.58c0,.52.26,2.07.26,2.07s.26,1.29-.26,1.81l-.51.51a9.89,9.89,0,0,0-1,1.29l-1,.52-2.06,1v2.32s-.77,0-1,.26-.78.77-1,.77-.52.77-.52.77a5.7,5.7,0,0,0-.77,1.3,8.39,8.39,0,0,1-.78,1.54l-2.58,2.33a15.86,15.86,0,0,0-2.84,1.54,2.71,2.71,0,0,1-1,1.55c-.51.26.77.26-1,.78a16.47,16.47,0,0,1-3.87.51l-1.8,1L467,537.1s-1.55-1-1.55-.26-1.29,2.32-1.29,2.58a10,10,0,0,1-1,3.36c-.52.51-4.39,2.83-4.39,2.83l-5.67,3.87-1.29,1.81-.52,3.61L450,559.54l-1,3.1-2.32,3.1-2.84,6.45-1.8,2.06,1.28,2.58.52,1-1.8,1.81-1.3,1.29-.51,2.84-1.55,2.58-2.32,2.32,1.29,1.55,3.09,2.58,2.33,3.35.25,1.81,1,2.58.25,2.84L443,606.5l-.27,2.07,1.81,2.06s2.07,1.55,2.07,1.81-1,2.83-1,2.83l-1,1-2.84,2.84-1.8,2.06-1.29,2.58-1,2.06s-.52,1.55-.26,1.55.77,2.07.77,2.07l-1.8,2.58-.78,1.8-3.35,2.07-1.81-.26-4.64-3.87-3.87-3.87-2.84-3.1h-4.13l-3.1.26-3.35.52-1.8,1.8L404.56,631l-1,2.59s-2.32.77-2.84.51-3.36-2.58-3.36-2.58l-3.35.52-4.38,2.06-3.1-1.55L380.3,631v-3.09l-3.61-1.55-.78,2.58-.51,1-1.81-1.29-2.58-.26v-2.06l-1.29-.52-3.09,2.32s-4.39,2.33-4.91,2.58-4.38,1-4.38,1L355.53,630a17.66,17.66,0,0,1-2.84-.51,12.19,12.19,0,0,1-1.81-1.55c-.25-.26-1.54-1.55-.77-2.07s1-1.29,1.55-1.54a12.46,12.46,0,0,1,1.29-.52l1-2.06s.26-1.81,0-2.07-1.54-3.61-1.8-3.87-1-1.55-1.3-1.29-1,0-1,0v-1.29a15.14,15.14,0,0,1,1-2.06l.78-.78.26-1.54a8.87,8.87,0,0,1-.78-1.55c0-.26-.51-2.07-.51-2.07l-.78-1.29s.52-1.29,0-1.8l-1-1s-.52-1-1.8-.25a42,42,0,0,0-4.13,3.35l-1,1V606l-.25.77-.78,1.29s.26.26,0,1a13.44,13.44,0,0,1-1,2.07l-1.55.77a11.91,11.91,0,0,0-2.32-.77c-.51,0-2.84-1.81-2.84-1.81l-2.58-1.29s-.25-1.8-.25-2.06a17.69,17.69,0,0,0-.78-2.07,3.28,3.28,0,0,0-.25-2.06,6.48,6.48,0,0,0-1-1.55l-.77-.26-1.81-.77-4.38-2.07-2.07-2.32-2.58-1-2.06,2.58a1.29,1.29,0,0,1-1.29.26,29.63,29.63,0,0,0-3.62-.52,7.74,7.74,0,0,1-2.06,1.81c-.78.26-1.54,1-1.29,1.54a28.82,28.82,0,0,1,.78,3.36s1-.52.25.78.52,1-1,2.32a13.25,13.25,0,0,0-2.06,2.06,38.61,38.61,0,0,1-3.62,2.32s-.51-.26,0,1,1,3.1,1,3.1l-3.35,1s0,.26-1,.52-3.35,1-3.35,1-3.62-.77-3.62-.26.78,3.36,0,3.88a13.37,13.37,0,0,1-2.84,1,7.19,7.19,0,0,1-2.84-.52c-.77-.51-1.54-1.81-2.32-2.06s-2.06-.78-2.06-.78-3.35.26-2.84,1,1,2.58,1.55,2.84.26,1.81.26,1.81.51.26-.52.51a6.2,6.2,0,0,1-2.32,0l-2.32-1.8a3.85,3.85,0,0,0-2.06-.26l-.78.26s-1.29,1-1-1a25.67,25.67,0,0,0,0-4.65v-1.29c0-.52,1.29-2.58,0-3.1s-4.13-1.8-4.13-1.8-.25,0,0-.52a9.47,9.47,0,0,0,.51-1.54L266,606.5l.51-2.83s.52,0-.51-1a22.39,22.39,0,0,0-3.09-2.32l-.78-.26-3.87-.77,1.29-.78,1-1.29a14.63,14.63,0,0,1,1-1.8c.26-.26,1.3-1.55,1.3-1.55s0-.77.25-1a8.52,8.52,0,0,0,.78-1.55l.77-1.8.52-1,.52-.26.51-.77.77-1.29,1-1,.51-.78h2.33l.77-.25s-.26,0,.77-1a7.46,7.46,0,0,0,1.29-1.54l1-.52.51.26,2.06.77h1.29a14.62,14.62,0,0,0,1.81-1,22.81,22.81,0,0,1,2.58-1.29h.51c.26,0,2.84.52,2.84.52h1s.52.26.52,0a10.89,10.89,0,0,1,1.29-1.81,4,4,0,0,1,.51-.78c.27-.25,1.3-1.28,1.3-1.28l1.8-.78s1.55,1,1.55,1.29.52.77.78,1.55a6,6,0,0,0,.77,1.81c.26.26,0,.51.51.51a9.34,9.34,0,0,0,1.55-.25l.52-1v-1c0-1,.26-1.81,0-2.06A4.36,4.36,0,0,1,298,575a1.14,1.14,0,0,0-.77-1,15.49,15.49,0,0,1-1.81-.77l-1-1c-.25-.26-.51-.77-.77-1a1.34,1.34,0,0,0-1-.51,15,15,0,0,0-1.8.25s-.26-.51-1,0a10,10,0,0,1-3.09.78h-2.07l-3.09-.25s1-.53-.51-.27-1.81,0-2.33.27-.26-.27-1,.51a4.45,4.45,0,0,1-2.58.77s.26.78-.77.26a16.72,16.72,0,0,0-1.81-.77l-2.32-.77-.52-.78v-1l-.51-.52-2.59-1a1.82,1.82,0,0,1-.51-1v-1.29a4,4,0,0,1,.51-.78c.27-.26.27-1.29.27-1.29v-1c0-.26,0-1.29.25-1.55s-.52-.77.52-1.29a23.42,23.42,0,0,1,2.58-1.29c.26,0,.51-.25,1-.25a7.52,7.52,0,0,0,2.58-.78c.26-.25.77-1.81,1.29-2.06s1.55-1.81,1.81-1.81,0-.51,1-1,1.8-1.29,2.32-1.29a5.26,5.26,0,0,0,1.55-.52l2.83-.77.52-.26,2.32-1,1.3-.26,1.54-2.58a3.27,3.27,0,0,0,.52-.77c.26-.52.77-1.29.77-1.29l1.55-3.36,2.07-2.58-1-3.09.51-1.55s.52-.52.77-.52,2.84.26,2.84.26l2.07.77h2.06c1,0,3.1.26,3.1.26l3.09.52a2.52,2.52,0,0,1,1.81.26,8.08,8.08,0,0,1,1.55,1.29c.51.51,1.29,1.54,1.8,2.06a10.89,10.89,0,0,0,1.81,1.29,18.08,18.08,0,0,0,1.81,1,8.82,8.82,0,0,0,.77-2.06,11,11,0,0,0-.26-1.29V534c0-.26,1.29-.77,0-1s-1.8-.52-2.07-.52-2.57-.51-2.57-.51a23.08,23.08,0,0,1-2.33-1.29,15.57,15.57,0,0,1-1-1.55s-1.29-1-1.29-1.29a1.62,1.62,0,0,0-1-1.55c-1-.52-1.81-1-1.81-1v-1l.52-.78,1.55-.77,2.83-.77,1.3-.26a5,5,0,0,1,1.8-.52h2.33a6.77,6.77,0,0,1,1.8.78c1,.51.52.51,1,.51h2.33l.51-.26.26-.77s-.26-.52.26-1.8.77-1.81.77-1.81l.77-.52,1.29-1,1-2.06s-.26-.26-2.07-.26a28.3,28.3,0,0,0-4.38.51l-1,.52-4.38,2.58-3.1-.78-1.8-.25-.78.51s-1-1.54-1.54-1.54h-2.59l-.25,1-3.1,2.58v-1.29l-5.16-1.81h-2.84l.26-.77.26-2.33.26-1.8v-7.23l-1.81-1.28h-2.84l-2.58-1.81.26-1.81s0-1.8,1.29-1.8a20.45,20.45,0,0,0,2.84-.26,7.13,7.13,0,0,1,1.54.26,8.58,8.58,0,0,0,1.81.25s0-.25.78.26a6.15,6.15,0,0,0,2.58.52h1.8l2.84-.52a5.29,5.29,0,0,1,1.29-.26h3.09l2.84-.77.26-1,.17-.4,2.93.14,1-.26s.77-.77.77-1v-.51l1-1.29a8.69,8.69,0,0,0,2.07-1.55c.26-.52,1.55-.52,1.81-1s1.8-.25,1.8-.25h1.81l2.58-.26.52-.52,2.06-.77s1.29,0,1.55-.26a21.69,21.69,0,0,1,2.32-.77,7.84,7.84,0,0,0,1.8-1.29c.52-.52.78-.26,1-.78a5.78,5.78,0,0,1,1.29-1.55c.77-.77,0-.77-.52-1.8s0-1.29,0-1.81.52-1.29.52-1.8a5.43,5.43,0,0,1,.77-1.81c.26-.52,1-1.29.78-2.06s.77-1.29,1-2.33,3.09-.51,3.09-.51a10.58,10.58,0,0,1,2.33-.52c.77,0,1.29-.52,3.35-1.29s1.81-.51,1.81-.51l2.84,2.06.77.26s2.07.51,2.32.51,1.55-1.29,2.07-1.29.77.26,1.28.78a10.22,10.22,0,0,1,1.29,1.8c.52.78,0,1,0,1s3.36-1.55,3.62-1.29l2.06,2.06s-.52,3.61-.78,3.61-.51,2.07-.51,2.32a18.09,18.09,0,0,0,1.55,2.33s1,1.29.77,1.8a1.27,1.27,0,0,0,0,1h3.62c.51,0,.77.52,1,.78a6.52,6.52,0,0,0,1.8,1c.26,0,.77,1,.77,1l.52-.51.78-.78v-1.8c0-.26.77-.26,1.54-.78s.78.52,1.81.78.78.25.78.25,1.8-.77,2.06-1.29.77-.77,1.29-1.29.52.26.52.26l2.83,1.29,1.55-1.29a34.26,34.26,0,0,1,3.1,1.55c.25.26,2.06.26,2.06.26s2.07-1.55,2.07-1.81.77-1.54.77-1.8,1.81,0,1.81,0a23.87,23.87,0,0,0,3.35-1l.52-.51.51-.77a3.57,3.57,0,0,1,1,.51,1.28,1.28,0,0,0,.78.26l1.29-.26,2.06-.77,1.81,2.06,1,1.81-.25,2.32a3.93,3.93,0,0,1,0,1.8,1.71,1.71,0,0,0,0,1.29,15.06,15.06,0,0,0,1,2.07A25.32,25.32,0,0,1,412,493s.26,1.29.26,1.55a6.07,6.07,0,0,1-.52,2.06c-.25.26,0,1,0,1.29s2.07,1.55,2.07,2.06v.78l4.13.51,2.32-1.8,1,1s1.29,1.55,1.29,2.07a3.14,3.14,0,0,0,.52,1.28s2.06,1.81,2.06,2.59v.77l3.35.26,1.81.51,2.32-.25s2.58-.52,2.84-1,.78-.25,1-1.28a5.7,5.7,0,0,0,.26-2.07,9.21,9.21,0,0,0-.26-1.81v-1.8a8,8,0,0,1,1-1.55l2.33-.26.77,1.55,1.55,1s2.32.52,2.84.52.51.51.51,1.55v2.06c0,.78,1.81.78,2.07.52a1.76,1.76,0,0,0,.77-1.3c.26-1,.52-.77.78-1.54s0-.78,0-1,1-.51,1.29-.77l.77-.77-.51-1a1.26,1.26,0,0,0-.26-.77,16,16,0,0,0-1-1.55c-.51-.52-.25-.77-.25-.77l1.29-1.29c.26-.26.26-1,.26-1a11.39,11.39,0,0,0,2.83-.26c.26-.26,1.29.77,1.29.77a18.17,18.17,0,0,1,.78,2.06v1c0,.26.77.51.77.77s1,.26,1.55.26,0-.77,0-.77a8.91,8.91,0,0,0,.77-1.55c0-.26,1.3-1,1.55-1.29s1.81.51,1.81.51a8.57,8.57,0,0,1,.77,1.55,23.79,23.79,0,0,0,1.29,2.58l2.32,2.32a8,8,0,0,0,2.84-.51c1-.52,1.55,1.29,2.07,1.81s1.55,1.28,1.55,1.54,1,0,1,0a13.63,13.63,0,0,0,2.83-.51,8,8,0,0,1,2.07-.52l2.58-1.81H484l2.83.26,2.07,2.32" transform="translate(-160.82 -16.45)"/>
    </g>
    <g id="loca10_daegu">
      <path class="cls-1" d="M583.61,578.18l1-1.55,1.3-2.58,1.28-2.84,1.81-1.29a29.6,29.6,0,0,0,3.35-1.28c.26-.26,1-.26,1-.26l2.84.26,2.07.25V573l3.09,1,2.07-.52,2.84-.25,2.84-1.81,1-2.06a9.34,9.34,0,0,0,.25-1.55c0-.52,0-.78.26-1s.26-1,.26-1.55v-2.06a13.13,13.13,0,0,0-.52-2.33c-.25-.51.26-1.29.26-1.29a18,18,0,0,0,1.81-2.32c0-.26,1-.77,1.29-.77s.51-.52.51-.78,0-1-.25-1.29.25-.77.25-.77.52-1,.26-1.55,0-.77,0-1.29,1.29-.52,2.06-.77.27-.52.27-1.29a1.85,1.85,0,0,0-.78-1.55c-.52-.52,1.55-.52,1.55-.52s2.58.26,2.84.26.25-1,.52-1,.25-.77.25-1v-1.3c0-.25,2.07-1.28,2.32-1.54s0-.77,0-1.29v-4.13a4.27,4.27,0,0,0-.51-1.29c-.26-.52-.78-1-1-1.55s0-.77,0-1a10,10,0,0,0,.25-2.06c0-1.3.26-.78.52-1.3a2.77,2.77,0,0,0,.26-1.29,7.51,7.51,0,0,0-1.3-2.57c-.76-1-.25-.78-.25-1.3v-1.54a3.21,3.21,0,0,0-.51-1.81c-.52-1-.27-1.55-.27-1.55a35.44,35.44,0,0,0-4.13-1.54,11.64,11.64,0,0,1-2.57-1.55s-3.1,1-3.36,1-2.06.77-2.32.77-.26-.25-1.81-.77-.77,0-.77,0a3.41,3.41,0,0,0-1.29.26,17.61,17.61,0,0,0-1.81,1.29l-2.83,1.29h-.52l-2.06,1-2.07,1.29a12.1,12.1,0,0,1-3.09,0c-.52-.26-.26,0-1.3-1s-.51,0-.51,0l-1,1S589,523.74,589,524s-.26,1.29-.26,1.55.26,2.57.26,3.09v2.07l-.26,1.29-1.55,1.54c-1,1-1,.78-1,.78l-1.55.51-.77.78-1,1.29a1.14,1.14,0,0,0-.78-.26c-.52,0-1-.52-2.06-.77s-.78-1-1-1.29,0-.26.51-1a8.38,8.38,0,0,0,.78-1.28c.25-.52,0-1,0-1.81s-.26-.78-.52-1.29-1.55-.78-1.8-1.55-.26,0-1.3-.77-.51.25-.51.25l-2.06.78a3.59,3.59,0,0,0-1,.51,13.92,13.92,0,0,1-1.8,1,24,24,0,0,1-.78,2.33,3.82,3.82,0,0,0-.26,1.55c0,.25-.51,2.06-.51,2.06l-2.33,3.87-1.28,1a14.92,14.92,0,0,1-1,1.81c-.26.26-.26,1-.26,1.29s.52.25.52.25a7.58,7.58,0,0,0,2.32.52c1,0,1.55.78,2.33.78a13.82,13.82,0,0,1,2.84.51c1,.26,2.32.52,3.6.78s1,1,1.81,1.54.52,2.07.52,2.07l-.26,1.29a7.31,7.31,0,0,0-1.55,1c-.52.52-.26,0-.26,0H571a14.73,14.73,0,0,1-1.81.26c-1,0-.25.77-.25.77L567.35,556l-2.06,2.58a14.49,14.49,0,0,1-1,2.06c-.26.26-.26,1.55-.26,1.55a2.05,2.05,0,0,0,.77,1,8,8,0,0,1,1.55,1.8,8.19,8.19,0,0,1,1.81,1.55,12.36,12.36,0,0,0,1.81,1.81c.25.26.25,2.06.51,2.83s0,1,0,1a33,33,0,0,1-3.61,1,1.52,1.52,0,0,1-1-.26,3.94,3.94,0,0,1-1.55-.78,9.67,9.67,0,0,1-1.54-1.28c-.53-.52-1.56,0-1.81,0h-1L558.07,573v.26a27.65,27.65,0,0,1,1.29,3.09,5.81,5.81,0,0,0,1,2.07,11.5,11.5,0,0,1,1,1.8c0,.26,1.81,2.33,1.55,2.59s.77,2.06.77,2.06l-1.37,3.4,2.15.21s-1-1,0-1S571,585.4,571,585.4h6.45s2.32-.51,2.32-2.06S583.61,578.18,583.61,578.18Z" transform="translate(-160.82 -16.45)"/>
    </g>
    <g id="loca09_gyeongbuk">
      <path class="cls-1" d="M727.4,595.42a7.88,7.88,0,0,1,1-1.54l1.29-2.07,1.29-2.06,1-1.81.26-3.1.26-1,.77-1.8.78-1.29v-2.07a7.88,7.88,0,0,1,1-1.54l1.29-1.29V573s.26-2.57.26-3.09a2.69,2.69,0,0,1,.25-1l1.3-1.81.26-1.55v-3.87c0-.25.77-.77.77-1a8.2,8.2,0,0,1,1-1.54l1-2.07,1-1.81,1-1-.26-1v-.52l-1.81-1.29v-.77l1.29-1.29.52-1.81-.52-1-.25-1.8-.26-2.58,1.29-.52,1-1.81,1-2.32,1-1.55,1.29-1.29.26-2.06.77-1.81,1.29-1,1.55-2.32,1-1.29a9.44,9.44,0,0,1,.51-2.32c.26-.26,0-4.39,0-4.39v-1.55a16.31,16.31,0,0,0-.51-1.8l-.26-.78-.78-1-1.28-.52h-1.81l-1.55,1-.52,1.54-.77,1-1.29,2.32-2.06,1.29-1.81.77-.78,1.55-1.28,1.29-1.29.52-2.59,1.28-2.06,1.55-1,1.55-2.84-1-2.32-1.55-1-1-1.55-1.55s-1.29-1.8-1.55-2.06-.26-1.81-.26-1.81v-1l.52-1.55a5.27,5.27,0,0,1,.51-1.55,6.85,6.85,0,0,1,1.81-.51s1.29-1.29,1.29-1.55a8,8,0,0,1,2.58-1.29c.26,0,.52-1.55.52-1.81s.51-1.8.51-2.06a7.88,7.88,0,0,1,1-1.54l-.25-2.07-1-1.55-1.8-1-1.29-1.55-.26-2.06.52-2.59-.26-2.83-.78-2.07-2.32-2.06v-2.06l1.81-2.84,1-2.84-1.29-2.84a12.59,12.59,0,0,1-.77-1.81c0-.25.51-2.06.51-2.06l1-1v-1.55l-.51-1.55-.26-1,.52-1.81.51-2.06.78-5.16.25-1.55.78-.77,1.29-.78.26-1,.25-1.8.78-1.55,1-1.55.77-1,.52-.78s1-.77,1-1,1.29-1,1.29-1l.78-.77.25-1.81.26-1.81.26-1.8.26-1.55.25-1.55-.25-1.55.25-1.8v-1.81l1-1,1-1.29-.26-2.07-.25-2.06-.26-3.09v-1.55l-.52-1.55-1-1.81-1.81-2.84-1-1.8.26-1.29.77-1.55v-1.55l.26-1,.77-.77.78-1.29.52-2.33.51-2.06,1-1.81.52-1,1.29-1,2.58-.77.77-1,.78-1.8,1.28-1,.52-2.84v-3.1l-.52-2.32-.25-2.07.77-1,.78-1.54-.78-1.81-.52-2.58-.76-1.81-.52-3.35-1.29-2.32-.78-2.07-2.32-3.87-.52-3.87.78-2.58-.78-5.16L739.53,340l1.28-2.83-.51-4.91v-5.42l2.07-1.8-3.87-4.13-3.36-4.9v-7l-1.83-2.34s-5.66,2.08-5.66,2.34a59,59,0,0,1-4.9,3.61l-3.1.52A11.18,11.18,0,0,0,718.1,315c0,.25-1,1-1.29,1.55s-2.58.25-2.58.51-1,1.29-1.29,1.8a4.89,4.89,0,0,0-.51,2.07,8.92,8.92,0,0,1,0,2.58c-.26.78,0,.52-.26,1.81a1.91,1.91,0,0,1-1.29,1.54l-4.13-1s-.51-.51-.77,0-1.81.52-1.81.52l.26-1s-2.32-1.81-2.32-2.58,1.29-2.07-.52-3.1a9.26,9.26,0,0,0-3.35-1.29c-.26,0-1.55.51-2.07-.26s-3.61-2.32-3.61-2.32-2.84-.77-2.84,0-2.06,1.29-2.32,2.06-2.58,1.55-2.58,1.55l-.52.78-2.32-1.3-3.36-1h-1.54s-1.55-1.54-2.06-1.54a7.94,7.94,0,0,1-1.81-.52.36.36,0,0,0-.52,0,3.44,3.44,0,0,1-2.32-.52c0-.25-1.29-.77-1.29-.77l-1.55-1s-1.8.77-1.8,1-1.81,1.29-1.81,1.29l-2.06,2.32s-1,1.29-1,1.81a1.55,1.55,0,0,1-.77,1.55c-.77.51-1.55,1-2.06.77s-4.39-1.55-4.39-1.55h-1c-.25,0-1.8-1-1.8-1.29s-.77-2.58-.77-2.58l-2.58-1-2.58-1.55s-.26-1-.52-1a11.19,11.19,0,0,0-1.81,1l-.51,2.58s-.78.52-.78,1-.77.78-1.28,1.29-.52-.51-.52.52v2.32l-2.84-.51-4.13-.52-4.9-2.84s-1-.51-2.83-1.29l-5.42,2.58h-5.93l-3.87,2.84L607.94,325l-2.84,2.58s-3.87.26-3.87.52-1.29,2.06-1.29,2.32.78,1-1,1.54a9.94,9.94,0,0,0-2.58,1l-2.84,1-.77,1.81a4.36,4.36,0,0,1-.52,1.29,3,3,0,0,1-1.29,1c-1,.51-1.8,1-1.54,1s0,0-.26,1-.52.78-.26,1.29a4.06,4.06,0,0,1,0,1.81l-1,1.8L586.27,347s.51,1.55.77,2.06a3.62,3.62,0,0,0,1.29,1s.78.51.78,1v1.55a9,9,0,0,1,.26,1.54,5.17,5.17,0,0,1-.26,1.29l-1,1s-1.54.26-1.8.78a8.71,8.71,0,0,1-1.55,1.55,14.62,14.62,0,0,1-1.81,1s-.77.77-1.29.77a4.84,4.84,0,0,0-2.06.52,19.43,19.43,0,0,1-2.84,1v.52a9.35,9.35,0,0,1-1.8-.78,12.79,12.79,0,0,0-2.33-.77l-2.32-1s-.52-.52-.52-.77a3.84,3.84,0,0,0-.51-1l-1.81-.51s.52-.52,0-1.55a16.21,16.21,0,0,0-1.54-2.32s-.78-.52-.78-.78-.26-2.06-.77-2.32-2.07-1.29-2.07-1.29l-1-.77-2.58-.26s-.78-.52-1,0-.51.77-.77,1.29-.78,1-.78,1.29-2.84,1-2.84,1v1s.26,0,0,1a11.91,11.91,0,0,1-.77,2.07l-.78,1.29-1.29.52-2.31-.78-2.07.26-1.55-1.29a17.59,17.59,0,0,1-1.55-1c-.26-.26-1.29-1-1.29-1s-.77-1-1,0a1.76,1.76,0,0,1-1,1.29l-1,.52a25.61,25.61,0,0,0-2.31,1.81H533.9l-2.33-.78-2.84.78s-2.06,3.09-2.06,3.61a30.37,30.37,0,0,1-1.55,3.87l-.78,2.58s-.25,2.06,0,2.32a9.25,9.25,0,0,0,1.81.77l2.32,2.33s.78.77.78,1a3.05,3.05,0,0,1,0,1.55c-.26.77-1,.77-1.29,1a9.1,9.1,0,0,1-2.58.52c-.26,0-3.1-.78-3.1-.78l-.51-3.35-2.84-.78-2.58,1.55s-1.55-.51-1.55-1-.26-2.84-.52-2.84-2.58-1.29-2.84-.52.26,2.84,0,3.36-1.8.77-1.8,1,.26-.26,0,.52l-.52,1.54-2.06.52a6.74,6.74,0,0,1-1.81,1.55v.51h-2.58l-3.09.26a16.56,16.56,0,0,1,.51,1.81,6.9,6.9,0,0,0,1.81,2.06c.26,0,2.58.52,2.58.52l1.29,1,1.29,1.81V388s-.26,2.58-.26,2.84a15.58,15.58,0,0,1-2.58,1.81,3.69,3.69,0,0,1-1-.52,23.63,23.63,0,0,1-1.29-2.06l-1.55-1.81-1.81-1.8h-.77l-2.06,1.29-2.07.77v3.35c0,.26-1.8.52-1.8.52l-1.81.26-.78-.26a20.87,20.87,0,0,1-2.31,1c-.26,0-1.55.51-1.55.78s-.26,2.06-.26,2.32,1.55,1,1.55,1.29,1,1,1,1l5.67.52,2.84,2.58.78,2.58a7.84,7.84,0,0,0,.51,2.06c.26.26,2.58,1.55,2.58,2.06s.26,2.33.26,2.58a10.89,10.89,0,0,1-1.29,1.81L497,414l-1.29,1.29s-.26,1.81.26,2.07,1,1.8,1,1.8a11.19,11.19,0,0,0-1,1.81,8.52,8.52,0,0,1-.78,1.55,3.75,3.75,0,0,0-.51,1c0,.26-.52.52,0,1a4.22,4.22,0,0,1,.77,2.32c0,.52.26,1.55.26,1.81s-.78.77-.78,1.29a5.16,5.16,0,0,1-.52,1.54l-.25,1-.78,2.84,1.81,2.84s1,0,1,1.54a5.92,5.92,0,0,1-1.81,3.61l-1.28,1.29c-.78.78-1.55.78-1.81,1s-2.32,2.85-2.32,2.85l-.26,4.12.51,2.84s1.3-.25,1.56,0,.25,0,1.54.52,1.81.77,1.81.77a9.86,9.86,0,0,1,1-2.84c.52-.51,2.06-2.32,2.06-2.32s.52,0,.78.78a25.78,25.78,0,0,1,.78,2.58v.77l1.8.52,2.32,1.54.26.78c.26.77-1.29.26.26,1.29l1.55,1h0c.51.26,3.09-1,3.09-1l.51-.78,2.84-.51h1.29c.52,0,5.17.51,5.17.51a11.13,11.13,0,0,0,.25,1.81c.26,1.29.78,1.29.78,1.81s-.26.51-.52,1.54-.77.78-.51,1.55-.26.26.25,1.55.52,1.81.78,1.81h.26l.25,2.32s-1.29,1.81-1.8,1.81a5.39,5.39,0,0,1-2.58-1c-.52-.51-1.81-2.32-2.33-2.06s-2.06.77-2.06.77-2.32.26-2.32.52-.51-.26-.51.77-.26,0-.26,1a6.65,6.65,0,0,0,.51,2.58,7,7,0,0,1,.26,2.32,5.51,5.51,0,0,1,0,2.06c-.26,1-.51.78-.51,1.81a7.58,7.58,0,0,1-.52,2.32l-.77,1.29s0-1-.27,0a3.82,3.82,0,0,1-1.28,1.81s-1,.25-1.3,1-.77,2.06-.77,2.32-.51,1.55-.51,1.81-.26,1.54,0,1.8a1.15,1.15,0,0,1,.25,1.29c-.25.52-1,1-1,1.55s-.77,1.29-.77,1.29l-1.29.77-4.9,1.55h-.52s.52-.51-.52.78-1.8,1.54-2.06,1.54-2.58.52-2.58.52v4.64a23.28,23.28,0,0,1,2.06,2.58c0,.26.26,1,.52,2.07a22.84,22.84,0,0,1,.77,2.58c0,.51.26,2.06.26,2.06s.26,1.29-.26,1.81l-.51.51a9.89,9.89,0,0,0-1,1.29l-1,.52-2.06,1V525s1.29,3.61,1.54,3.87,2.33,1.8,2.33,1.8,1.8,0,1.8.52.78.77.78,1.29.25,1.8.25,2.06a5.59,5.59,0,0,0,.78,1.29s1.55.26,1.81.26,3.35.78,3.35.78l2.07,1.28s2.32,2.33,2.32,2.84,4.38,2.07,4.38,2.07l3.61-1.55s.78,1.55,1.3,1,4.12-.51,4.12-.51l3.36,2.06a20.28,20.28,0,0,1,1,2.32,30.08,30.08,0,0,0,1.29,2.84s-1.55.26,0,1.55,2.84,2.58,2.84,2.58l1.8.77L530,557a1.14,1.14,0,0,0,.52,1.29c.77.51,2.06,3.35,2.06,3.35l1.3,1v8.51l-2.59,1-2.84,2.07-1.54,1-1,1,2.32,2.06h3.09l2.59,1.55s-1.81,1.29,0,1.29,6.7-1.8,6.7-1.8l1.81.25s3.61,2.07,4.12,1.55,7.49-.77,7.49-.77a26.55,26.55,0,0,1,1.54,4.9,2.19,2.19,0,0,1,1.56,1c.76,1,1.54,1.55,1.8,2.07s3.1,0,3.1,0l.42,0,1.38-3.4s-1-1.8-.77-2.06-1.55-2.32-1.55-2.58a11.19,11.19,0,0,0-1-1.81,5.67,5.67,0,0,1-1-2.06,28.27,28.27,0,0,0-1.29-3.1v-.26l1.81-2.06h1c.25,0,1.28-.52,1.8,0a9.71,9.71,0,0,0,1.55,1.29,4,4,0,0,0,1.55.77,1.52,1.52,0,0,0,1,.26,33.28,33.28,0,0,0,3.61-1s.26-.26,0-1-.26-2.58-.52-2.84a11.85,11.85,0,0,1-1.8-1.81,8.36,8.36,0,0,0-1.81-1.54,8.19,8.19,0,0,0-1.55-1.81,2,2,0,0,1-.77-1s0-1.29.26-1.55a16.31,16.31,0,0,0,1-2.07l2.06-2.57,1.55-2.84s-.77-.78.26-.78a15.28,15.28,0,0,0,1.81-.25h5.67s-.26.51.26,0a7.52,7.52,0,0,1,1.55-1l.25-1.29s.26-1.54-.51-2.06-.52-1.29-1.81-1.55-2.58-.51-3.61-.77a13.15,13.15,0,0,0-2.84-.52c-.77,0-1.29-.77-2.32-.77a7.58,7.58,0,0,1-2.32-.52s-.52,0-.52-.26,0-1,.26-1.29a13.92,13.92,0,0,0,1-1.8l1.29-1,2.32-3.88s.52-1.8.52-2.06a3.82,3.82,0,0,1,.26-1.55,23.1,23.1,0,0,0,.78-2.32,14.63,14.63,0,0,0,1.8-1,3.7,3.7,0,0,1,1-.52l2.06-.77s-.52-1,.51-.26,1,0,1.29.77,1.55,1,1.81,1.55.52.52.52,1.29.25,1.29,0,1.81a7.91,7.91,0,0,1-.78,1.29c-.52.77-.78.77-.52,1s0,1,1,1.29,1.54.78,2.06.78a1.12,1.12,0,0,1,.77.25l1-1.29.78-.77,1.55-.52s0,.26,1-.77l1.55-1.55.26-1.29v-2.06c0-.52-.26-2.84-.26-3.1s.26-1.29.26-1.55.26-1.54.26-1.54l1-1s-.52-1,.51,0,.78.78,1.29,1a12.66,12.66,0,0,0,3.1,0l2.07-1.3,2.06-1h.51l2.84-1.29a17.61,17.61,0,0,1,1.81-1.29,3.41,3.41,0,0,1,1.29-.26s-.78-.51.77,0,1.55.78,1.81.78,2.06-.78,2.32-.78,3.35-1,3.35-1a11.58,11.58,0,0,0,2.58,1.55,35.29,35.29,0,0,1,4.13,1.55s-.25.51.26,1.55a3.15,3.15,0,0,1,.52,1.8v1.55c0,.52-.52.26.25,1.29a7.36,7.36,0,0,1,1.29,2.58,2.89,2.89,0,0,1-.25,1.29c-.26.52-.52,0-.52,1.29a9.81,9.81,0,0,1-.26,2.07c0,.25-.26.51,0,1s.78,1,1,1.54a4.13,4.13,0,0,1,.52,1.3V541c0,.52.26,1,0,1.29s-2.32,1.29-2.32,1.55v1.29c0,.26,0,1-.26,1s-.26,1-.51,1-2.84-.26-2.84-.26-2.07,0-1.55.51A1.86,1.86,0,0,1,617,549c0,.78.52,1-.26,1.29s-2.06.26-2.06.78-.26.77,0,1.29-.26,1.54-.26,1.54-.51.52-.26.78.26,1,.26,1.29-.26.77-.51.77-1.29.52-1.29.78a18.75,18.75,0,0,1-1.81,2.32s-.52.77-.26,1.29a12.88,12.88,0,0,1,.52,2.32v2.06c0,.52,0,1.29-.26,1.55s-.26.52-.26,1a9,9,0,0,1-.26,1.55l-1,2.07-2.84,1.8-2.83.26-2.07.52-3.09-1v-4.12l-2.07-.26-2.84-.26s-.77,0-1,.26a28.68,28.68,0,0,1-3.35,1.29l-1.81,1.29L586,574.27l-1.29,2.58-1,1.54s2.06,2.58,2.06,3.1a21.73,21.73,0,0,1,0,4.13c-.25,1,.26,2.32,0,3.1s3.1,3.61,3.1,3.61,2.84,1.8,2.84,3.35,3.61,0,3.61,0l7.22,1.81h5.68l3.1,1.54,7.73,3.1,4.65-1,2.84-4.13h7l1-2.84,4.13-2.32,2.58-.26,6.18.26,2.85,3.1,4.9,1.29,3.87-3.61,4.9-1,3.1-.77,1.54.26v-3.88l2.07-5.41,7-3.36,5.94-.25,3.36.51,3.6-.51,4.39,2.32,1.8,1.81L699,583l-1,2.32s.51,2.06-.26,2.84-.77,2.06-.26,2.32,5.42,2.84,5.42,2.84,2.06-.52,2.06-.77a14.38,14.38,0,0,1,1.29-2.07l4.13-.51,4.39-1,3.61.78,5.94,2.58,2.57,2.06v2.84" transform="translate(-160.82 -16.45)"/>
      <path class="cls-1" d="M798,272.86l-3.1,1.54s-3.09.52-3.35,0-4.13-.77-4.13-.77l-2.07,1h-1.8l-1,1.55V277c0,.26-.78,2.07,0,2.58s1,.26,1.29,1.55a15.45,15.45,0,0,1,.25,2.58l-.51,1.29a2.82,2.82,0,0,0,.77,1.81,12.52,12.52,0,0,0,2.84,2.06c.26,0-.52-1,1.81,0a25.66,25.66,0,0,1,4.38,2.58h1.55c.51,0,2.58-1.8,2.58-1.8s.26-1,1-1.29,2.84-1,2.84-1,.77,0,.52-1.8a11.73,11.73,0,0,1,0-3.36s1.81,1,1.81,0-.78-2.32-.78-3.09V277l.78-2.06.51-1.29-3.35-.77C800.08,273.63,798,272.86,798,272.86Z" transform="translate(-160.82 -16.45)"/>
      <path class="cls-1" d="M840.1,284.72l-1.29,2.33,2.33,1s1.28.77,1.28,0v-3.36H840.1Z" transform="translate(-160.82 -16.45)"/>
    </g>
    <g id="loca08_chungbuk">
      <path class="cls-1" d="M485.62,282.23a23.24,23.24,0,0,1,1.75,2.64,30.2,30.2,0,0,0,1.28,2.84l1.29,3.35s1.81,0,1.81.26,1,.78,1,.78,2.58-.27,2.58-.52.52-1,.52-1.29,2.58-.52,2.84-.78,1.54.78,1.54.78h2.33c.25,0,.77-.78.77-.78a2,2,0,0,1,1.29-.51s1.81.51,2.07.51a11.52,11.52,0,0,1,1.8,1.55l.52-1c.25-.52,2.06-1.55,2.06-1.55l3.35-.51a24.26,24.26,0,0,0,.78-2.33c0-.25.26-2.32,0-2.58a18.67,18.67,0,0,1-1-3.61c0-.25-.25-1.54-.25-1.8a27.24,27.24,0,0,1,2.32-2.84l4.39-1.55,5.16.52,2.06.77.51,2.58s2.59,2.07,2.59,2.58-.78,1.29-.78,1.29v1s-.51,2.58-.51,2.84,1.8,1,2.06,1a6.54,6.54,0,0,1,1.29.52,10.37,10.37,0,0,0,3.35-1,14.14,14.14,0,0,1,3.1-1c.52-.25,2.58-1.29,2.84-1.8s1-1,1-1.29.26-1.55.26-2.06,1.29-.78,1.29-.78l.77,1.55s1.81.51,1.81.77a13.58,13.58,0,0,0,2.58,1.55,10.13,10.13,0,0,0,1.29-1,1.84,1.84,0,0,0,.77-1.55c0-.77,1.81-.77,2.33-1.55s2.58-.77,3.09-1,1.55,1,1.55,1l1.55,2.32,2.06,1,1.55,1,3.61,1.29a33.64,33.64,0,0,0,3.87-1.29c.26-.26,2.58.77,2.58.77a10.89,10.89,0,0,1,1.29,1.81c0,.26-2.06,1-2.06,1l-.51,1.55L571,289.26a17.43,17.43,0,0,1-1.55,2.32,7.29,7.29,0,0,1-3.1,1c-.51,0-.77,2.06-.77,2.06l1.29,1.29a18.28,18.28,0,0,1,2.32,2.33c.52.77,2.32-.26,2.32-.26L573.8,296s2.32,0,2.06.26S580,296,580,296l3.1.78.51,1.8,1.81,2.59,2.32,2.83,1.8,1.81,3.1-.52a27.57,27.57,0,0,1,4.65-1.29h2.84l.51.52a22.38,22.38,0,0,1,2.06,2.58,32.07,32.07,0,0,0,2.33,3.1h1.29c.25,0,3.09,1,3.09,1l2.07,2.06a38.06,38.06,0,0,0,4.38-.52c.78-.25,2.58,1,2.58,1l1.55,1.81a26.93,26.93,0,0,1,4.65,1.28h0l-5.41,2.58h-5.94l-3.87,2.84-1.54,2.84L605,327.7s-3.86.26-3.86.52-1.29,2.06-1.29,2.32.77,1-1,1.55a10,10,0,0,0-2.58,1l-2.84,1-.77,1.81a4.56,4.56,0,0,1-.51,1.29,3,3,0,0,1-1.3,1c-1,.52-1.8,1-1.54,1s0,0-.26,1-.52.78-.26,1.29a4.06,4.06,0,0,1,0,1.81l-1,1.8-1.55,1.81s.52,1.55.78,2.07a3.58,3.58,0,0,0,1.28,1s.78.51.78,1v1.55a9,9,0,0,1,.26,1.55,5.16,5.16,0,0,1-.26,1.28l-1,1s-1.55.26-1.81.77a8.39,8.39,0,0,1-1.55,1.55,14.63,14.63,0,0,1-1.8,1s-.78.77-1.3.77a4.84,4.84,0,0,0-2.06.52,19.43,19.43,0,0,1-2.84,1v.52a9.87,9.87,0,0,1-1.8-.77,12.11,12.11,0,0,0-2.32-.78l-2.33-1s-.51-.52-.51-.77a3.81,3.81,0,0,0-.52-1l-1.81-.51s.52-.52,0-1.55a16.21,16.21,0,0,0-1.54-2.32s-.78-.52-.78-.78-.26-2.06-.77-2.32-2.07-1.29-2.07-1.29l-1-.77-2.58-.26s-.77-.52-1,0-.52.77-.78,1.29-.78,1-.78,1.29-2.84,1-2.84,1v1s.26,0,0,1a11.14,11.14,0,0,1-.77,2.06l-.77,1.29-1.29.52-2.32-.78-2.07.26-1.55-1.29a16.31,16.31,0,0,1-1.54-1c-.26-.26-1.29-1-1.29-1s-.78-1-1,0a1.73,1.73,0,0,1-1,1.28l-1,.52a25,25,0,0,0-2.33,1.81h-2.31l-2.32-.78-2.84.78s-2.07,3.09-2.07,3.61a29.77,29.77,0,0,1-1.55,3.87l-.77,2.58s-.26,2.06,0,2.32a9.35,9.35,0,0,0,1.8.78l2.33,2.32s.77.77.77,1a2.94,2.94,0,0,1,0,1.55c-.26.77-1,.77-1.29,1a9.1,9.1,0,0,1-2.58.52c-.26,0-3.1-.78-3.1-.78l-.51-3.35-2.84-.78-2.58,1.55s-1.55-.51-1.55-1-.25-2.84-.51-2.84-2.58-1.29-2.84-.51.26,2.83,0,3.35-1.81.77-1.81,1,.26-.26,0,.52-.52,1.55-.52,1.55l-2.06.51a6.76,6.76,0,0,1-1.8,1.55v.52H502.6l-3.1.26a16.07,16.07,0,0,1,.52,1.8,6.87,6.87,0,0,0,1.8,2.06c.26,0,2.58.52,2.58.52l1.29,1,1.29,1.81v1.8s-.26,2.59-.26,2.85a16,16,0,0,1-2.57,1.8,3.7,3.7,0,0,1-1-.52,22.22,22.22,0,0,1-1.29-2.06l-1.55-1.81-1.8-1.8h-.78l-2.06,1.29-2.06.77V392c0,.25-1.81.51-1.81.51l-1.81.26-.77-.26a20.4,20.4,0,0,1-2.33,1c-.25,0-1.54.51-1.54.77s-.26,2.06-.26,2.32,1.55,1,1.55,1.29,1,1,1,1l5.68.52,2.84,2.58.77,2.58a7.83,7.83,0,0,0,.52,2.06c.25.26,2.58,1.55,2.58,2.07s.25,2.32.25,2.57A10.89,10.89,0,0,1,499,413.1l-2.06,1-1.29,1.28s-.26,1.81.26,2.07,1,1.81,1,1.81a11.05,11.05,0,0,0-1,1.8,8.57,8.57,0,0,1-.77,1.55,3.72,3.72,0,0,0-.52,1c0,.26-.51.52,0,1a4.14,4.14,0,0,1,.77,2.32c0,.52.26,1.55.26,1.81s-.78.78-.78,1.29a5.21,5.21,0,0,1-.51,1.55l-.25,1-.78,2.84,1.81,2.84s1,0,1,1.54a6,6,0,0,1-1.81,3.62l-1.29,1.29c-.77.77-1.55.77-1.81,1s-2.32,2.84-2.32,2.84l-.26,4.12.52,2.84s1.29-.26,1.55,0,.26,0,1.55.52,1.81.78,1.81.78a9.6,9.6,0,0,1,1-2.85c.51-.51,2.06-2.31,2.06-2.31s.51,0,.77.77a23.34,23.34,0,0,1,.78,2.58v.77l1.8.51,2.32,1.56.26.77c.26.77-1.29.26.26,1.29l1.55,1h0c.52.26,3.09-1,3.09-1l.52-.77,2.84-.52h1.29c.51,0,5.16.52,5.16.52a11.11,11.11,0,0,0,.25,1.8c.27,1.29.78,1.29.78,1.81s-.26.51-.51,1.54-.78.78-.52,1.55-.26.26.25,1.55.52,1.81.78,1.81h.26l.26,2.32s-1.3,1.81-1.81,1.81a5.42,5.42,0,0,1-2.58-1c-.51-.51-1.81-2.32-2.32-2.06s-2.06.77-2.06.77-2.32.26-2.32.52-.52-.26-.52.77-.26,0-.26,1a6.65,6.65,0,0,0,.51,2.58,6.8,6.8,0,0,1,.27,2.32,5.51,5.51,0,0,1,0,2.06c-.27,1-.52.78-.52,1.81a7.58,7.58,0,0,1-.52,2.32l-.77,1.29s0-1-.26,0a3.88,3.88,0,0,1-1.29,1.81s-1,.25-1.29,1a24,24,0,0,0-.78,2.32c0,.26-.51,1.55-.51,1.81s-.26,1.55,0,1.8a1.15,1.15,0,0,1,.26,1.29c-.26.52-1,1-1,1.55s-.77,1.29-.77,1.29l-1.29.77-4.9,1.55h-.51s.51-.51-.52.78-1.81,1.55-2.07,1.55-2.58.51-2.58.51l-2.07-2.32-2.83-.26h-2.58l-2.58,1.81a8.32,8.32,0,0,0-2.07.51,13.07,13.07,0,0,1-2.83.52s-1,.26-1,0-1-1-1.55-1.55-1-2.32-2.07-1.81a7.89,7.89,0,0,1-2.84.52L464.15,499a23.79,23.79,0,0,1-1.29-2.58,8.57,8.57,0,0,0-.77-1.55s-1.55-.77-1.81-.51-1.55,1-1.55,1.28a8.57,8.57,0,0,1-.77,1.55s.52.78,0,.78-1.55,0-1.55-.26-.77-.52-.77-.78v-1a17.46,17.46,0,0,0-.78-2.06s-1-1-1.29-.78a51.89,51.89,0,0,0-2.83-4.38c-1-1.29,0-1.81.51-2.32s0-1.55,0-2.33-1-1.8-1.55-2.32a11.65,11.65,0,0,1-1.29-2.06v-2.84c0-1,2.07-.52,2.07-.52s-.78-3.87-1.55-4.38,0-.52-.52-2.07-.25-2.06-.25-2.06a12.86,12.86,0,0,0,.77-3.1c0-1-1.29-2.32-1.29-2.32a21.07,21.07,0,0,1-2.58-1.29c-1.29-.77-.52.26-1.29,0s-1.29-2.84-1.29-2.84l-2.84-.77-4.13.77-1-1.81-1.54-2.57,1.8-3.36.26-4.38,3.87-5.42s1.29-5.68,1.29-6.19a33.71,33.71,0,0,1,.77-3.36l3.1-1.54a13.29,13.29,0,0,0,1-2.59c0-.51-.52-.77-1-2.06s-1-.26-1-.26-4.91.52-4.91,0a14.48,14.48,0,0,0-.26-1.8l.26-2.07s-.26,3.1,0-1.29-1.55-3.09-2.06-4.13l-1.55-3.09-2.06,2.84s-1.29,1.8-2.32,1.55a19.35,19.35,0,0,0-3.88,0c-1,0-2.32-2.59-2.57-3.1a31.24,31.24,0,0,1-.52-4.39,21.16,21.16,0,0,1-4.13,0c-1-.26.26-2.32,0-2.58s-1.29-2.06-1.29-2.06a9.24,9.24,0,0,0,.77-4.65c-.25-2.58-.77,0-.77,0s-1.8-2.32-1.8-2.84a22.86,22.86,0,0,1,.51-2.58,33.11,33.11,0,0,1-3.61-3.09c-.26-.51-1.81-3.35-1.81-3.35l-2.06-4.65a17.61,17.61,0,0,0-1.81-1.29c-.51-.26-.77-.78-1.29-1.29a3.09,3.09,0,0,1-.52-2.06c0-.52,1-1,1-1.29s.77-.52.77-.52a38.85,38.85,0,0,0,2.33-3.35V371.3l.77-2.06,2.58-1.8.77-1.55,1.55-1.55.26-.26s2.06-1,2.06-2.58,1.3,0,1.3,0l1.54-1h3.09a12.07,12.07,0,0,0,2.07.51,5.15,5.15,0,0,1,1.55.52l2.58-1.29a1,1,0,0,0,.52-1h0c0-.26-.78-1.55-.52-2.58s-.52-1.29-.52-1.29a10.81,10.81,0,0,1-1-2.32c-.25-1-.52-.52-1.55-1.55s-.51-1.29-.51-2.07-1.81-1.29-2.07-1.54a15.75,15.75,0,0,1-2.58-2.07c-.51-.77-.77-.77-.51-1.29s-.26-2.06-1-2.84-1-.25-1.81-1-1.29-1-1.55-2.06.52-.78.77-1-.77-2.58-.77-2.58l-2.07-2.32s.27-2.06.27-2.58v-1.55l.51-2.83,3.87-1.29h4.38c2.33,0,4.4-3.1,4.4-3.1s2.06-1.29,2.06-1.81,2.06-3.09,2.06-4.64.77,0,.77,0l1.81-1.29,5.42-1.81c5.42-1.8.51-1.8.51-1.8l4.4-3.61,2.06.25s2.32.78,2.06.52,3.61-1,3.61-1l3.36,2.32h1l2.58-2.58s2.06-1,2.32-1.81,2.06-1.29,2.06-1.8,1.3-2.33,1.3-2.84,3.6-1.81,4.12-1.81.26-2.06,0-2.58a25.43,25.43,0,0,1,0-4.38s2.84-2.07,3.36-1.81.77,3.36.77,3.36h4.64s.52-2.58.52-3.1a14.93,14.93,0,0,1,1.29-2.84l4.9-3.1,1.81-1.8" transform="translate(-160.82 -16.45)"/>
    </g>
    <g id="loca07_deajeon">
      <path class="cls-1" d="M404.67,424l.52-.52,3.09-1h5.43l.51-1.3a10.88,10.88,0,0,1,1-3.09c.52-.52,1.81-1,1.81-1.55a8.1,8.1,0,0,1,.51-1.8v-3.36c0-.25.84-2.81.84-2.81l.46.58a25.19,25.19,0,0,0,4.12.17,32.51,32.51,0,0,0,.52,4.38c.26.52,1.55,3.1,2.58,3.1a19.25,19.25,0,0,1,3.87,0c1,.26,2.32-1.55,2.32-1.55l2.06-2.83,1.56,3.09c.51,1,2.31-.26,2.06,4.13s0,1.29,0,1.29L437.7,423a14.42,14.42,0,0,1,.26,1.81c0,.52,4.9,0,4.9,0s.51-1,1,.26,1,1.55,1,2.06a13.08,13.08,0,0,1-1,2.58l-3.1,1.55a34.09,34.09,0,0,0-.77,3.35c0,.52-1.29,6.2-1.29,6.2l-3.87,5.42-.25,4.38L432.8,454l1.54,2.57.66,1.15-2.72,2.47-1.8,1.29a6.92,6.92,0,0,0-1,1.29,17.09,17.09,0,0,1-2.06,2.32,2,2,0,0,0-.52,1.29l-2.84-.78s-1.28-1.29-2.06-2.06.26-1,0-1.81a15.85,15.85,0,0,0-.77-1.8l-2.58-1v-6.7l-2.07-.52a44.15,44.15,0,0,0-1,5.94c0,1.54-1.8,3.09-1.8,3.09l-1.3,2.33-2.83,2.57-6.46-6.71s-.51-1.28-.77-2.06a5,5,0,0,1-.26-2.06,3.15,3.15,0,0,1,1-2.07c.26-.25,0-1,0-1.29s-1-.51-2.06-1-1-.51-1.29-.77A2.8,2.8,0,0,1,399,448c-.26-1-.26-.52,0-1.29s.52-.77.26-1,0-1-.26-2.07.26-1,.52-1.8a5.35,5.35,0,0,1,1.54-2.07,26.45,26.45,0,0,0,2.06-2.58,20.28,20.28,0,0,1-1-2.32c0-.26,1-1.55,1-2.32v-1s.52-3.87.52-4.13,1-3.35,1-3.35" transform="translate(-160.82 -16.45)"/>
    </g>
    <g id="loca06_sejong">
      <path class="cls-1" d="M409.87,370.09l-.46,1.24v2.32a37.58,37.58,0,0,1-2.33,3.36s-.77.26-.77.51-1,.78-1,1.29a3.1,3.1,0,0,0,.52,2.07c.51.51.77,1,1.28,1.28a17.31,17.31,0,0,1,1.81,1.3L411,388.1s1.56,2.84,1.81,3.36a34.27,34.27,0,0,0,3.61,3.09,22.4,22.4,0,0,0-.51,2.58c0,.52,1.81,2.84,1.81,2.84s.51-2.58.77,0a9.31,9.31,0,0,1-.77,4.64s1,1.81,1.28,2.07l-.34,1.49s-.94,2.89-.94,3.15v3.36a8,8,0,0,0-.52,1.8c0,.52-1.29,1-1.81,1.55s-1,3.1-1,3.1l-.52,1.29h-5.41l-3.1,1-.52.51-1.54-2.83-2.33-2.33a14.14,14.14,0,0,1-1.54-2.06c-.27-.52-1-1.55-1-2.06a20.87,20.87,0,0,0-.27-2.07,11.24,11.24,0,0,0,2.07-1.81,8,8,0,0,0,.77-2.32c0-.51.78-1,.78-1l-3.35-1.81-.78-2.32a37.72,37.72,0,0,1-1-4.38c0-.77.51-4.39.51-4.39l-.51-.77A15.32,15.32,0,0,1,395,392a39,39,0,0,0-3.35-3.87,4.93,4.93,0,0,1-1.3-2.06s-2.83-4.39-2.58-4.9a4.06,4.06,0,0,0,0-1.81s1.81-3.87,1.81-4.64a5.67,5.67,0,0,1,.77-2.07A23.68,23.68,0,0,0,389,370c-.25-.26-1-2.84-1.29-3.1s0-2.06,0-2.32,1.55-1.55,1.55-1.55l2.33-.51,2.58,1,3.35,1.55,1.54,1.8,3.1.78,3.1,2.32,3.61,1,1-1" transform="translate(-160.82 -16.45)"/>
    </g>
    <g id="loca05_chungnam">
      <path class="cls-1" d="M379.58,485.7h0S379.59,485.71,379.58,485.7Z" transform="translate(-160.82 -16.45)"/>
      <path class="cls-1" d="M435.13,457.43h0l-2.71,2.47-1.81,1.29a7,7,0,0,0-1,1.29,17.2,17.2,0,0,1-2.07,2.32,2,2,0,0,0-.51,1.29l-2.84-.77-2.06-2.07c-.78-.77.25-1,0-1.81a17.17,17.17,0,0,0-.78-1.8l-2.57-1V451.9l-2.07-.52a44.15,44.15,0,0,0-1,5.94c0,1.54-1.81,3.09-1.81,3.09l-1.29,2.33-2.83,2.58-6.46-6.71s-.52-1.29-.78-2.07a5.15,5.15,0,0,1-.25-2.06,3,3,0,0,1,1-2.06c.26-.26,0-1,0-1.29s-1-.52-2.06-1-1-.52-1.29-.77a2.72,2.72,0,0,1-.78-1.55c-.25-1-.25-.52,0-1.29s.52-.77.26-1,0-1-.26-2.06.26-1,.52-1.81a5.39,5.39,0,0,1,1.55-2.07,28.17,28.17,0,0,0,2.06-2.58,20.28,20.28,0,0,1-1-2.32c0-.26,1-1.55,1-2.32v-1s.52-3.87.52-4.13,1-3.35,1-3.35h0l0,0L403.22,421s-2.06-2.07-2.32-2.32a14.28,14.28,0,0,1-1.55-2.07c-.26-.51-1-1.55-1-2.06s-.26-2.07-.26-2.07a11.17,11.17,0,0,0,2.06-1.8,7.9,7.9,0,0,0,.78-2.33c0-.51.78-1,.78-1l-3.36-1.8-.77-2.33a37.42,37.42,0,0,1-1-4.38c0-.78.52-4.39.52-4.39l-.52-.77a14.74,14.74,0,0,1-1.54-1.81,39.2,39.2,0,0,0-3.36-3.87,5,5,0,0,1-1.29-2.06s-2.84-4.39-2.58-4.9a4.06,4.06,0,0,0,0-1.81s1.81-3.87,1.81-4.64a5.67,5.67,0,0,1,.77-2.07,23.68,23.68,0,0,0-1.29-2.58c-.26-.26-1-2.84-1.29-3.09s0-2.07,0-2.33,1.55-1.54,1.55-1.54l2.32-.52,2.58,1,3.36,1.55,1.54,1.81,3.1.77,3.09,2.32,3.62,1,1-1,3-2.65.77-1.54,1.55-1.55.26-.26s2.06-1,2.06-2.58,1.29,0,1.29,0l1.55-1h3.09a11.63,11.63,0,0,0,2.07.52,5.32,5.32,0,0,1,1.55.51l2.58-1.29a1,1,0,0,0,.51-1c0-.26-.77-1.55-.51-2.58a1,1,0,0,0-.52-1.29,10.3,10.3,0,0,1-1-2.32c-.26-1-.52-.52-1.55-1.55S426,350,426,349.22s-1.8-1.28-2.06-1.54a14.85,14.85,0,0,1-2.58-2.07c-.51-.77-.78-.77-.51-1.29s-.27-2.06-1-2.84-1-.25-1.8-1-1.29-1-1.55-2.06.51-.78.77-1-.77-2.58-.77-2.58l-3.13-2.86-1.52-.76s-1.29-1-1.29-1.54a16,16,0,0,0-.77-2.58s-2.58-.52-2.58-.26-.26,1.29-.78,1-2.06-1-2.06-1.29-1.81-1.55-1.81-1.55l-1.29-1.29L400,320.59,396.87,319c-.52-.26-1.81-.26-2.06-.52s-2.59-1.8-2.59-1.8l-2.83-.26a21.28,21.28,0,0,0-3.36.77,15.06,15.06,0,0,0-1,2.07l-2.06,1-3.62,1-5.16-.52-2.32,1.55-3.35-.77-3.36,1.55-5.93,1.54-3.87,2.07-3.1,2.06-1.29,1-3.87.52-4.38-1.81-1.81-2.83-1.29-3.36-1.81-3.09-.51-1.55-.78-1.29s-.25-2.07-.25-2.58a3.13,3.13,0,0,0-.52-1.29l-.51-1.29-1-1.81-1.56-1.29-1.28-.26-.78,1.81-1.29,1.81-1.55.25-1-.25-1-2.07-.26-2.84a2.56,2.56,0,0,0-.26-1c-.26-.52-1.29-.52-1.29-.52l-1.81.78-2.57.77-3.1-1.55-4.9-2.83s-4.13-2.07-4.39-2.33-3.36-1.54-3.36-1.54a15.32,15.32,0,0,1-1-2.07,16.51,16.51,0,0,0-2.06-2.32c-.26-.26-2.07-1.81-2.07-1.81a12.41,12.41,0,0,0-1.8-.77c-.26,0-1.55.26-1.55.26l-3.87,3.61-1,1.55-.26,1.29s1,5.16,1.55,5.93a9.91,9.91,0,0,1,.77,1.81c.26.51,2.32,1.55,2.32,2.06a8.92,8.92,0,0,1-1,2.32,14,14,0,0,1-.77,1.3l-1.81-1-1.8-3.61a36.48,36.48,0,0,0-1.29-4.13c-.26-.26-1.81-1.55-1.81-1.55l-6.71-2.32a12,12,0,0,1-2.06-.51c-.52-.26-2.07.51-2.32.25s-3.1,1.55-4.39,1.55a3.46,3.46,0,0,0-2.58,1,11.4,11.4,0,0,1-.25,1.29l2.32,1.55s1.54.52,2.06.78a14.07,14.07,0,0,1,2.06,1c.26.26,0,2.06,0,2.06h-2.84c-1.28,0-1,.78-1,.78l.26,1.29a14.75,14.75,0,0,0,2.58.51c.78,0,1,1,1.29,1.29s1.81,2.07,1.81,2.07a14.6,14.6,0,0,1,2.58.51c.51.26.51,1.29.51,1.29v2.58a2.14,2.14,0,0,1-.77,1.29l-1.81,1.81a2.89,2.89,0,0,1-1.55.77c-.51,0-1,.78-1.54,1a5.14,5.14,0,0,0-1.29,1,15.31,15.31,0,0,0-1.55,2.32c-.77,1.29-.52,1.29-.52,1.29v1.55l-1.81,1h-.25c-.26,0-.78-.52-1.55-.52l-.52,1.55s-.51,1.29-.77,1.29.26,1.55.26,1.55l-1,1.29-.78,1-1.8.26s-1.55.26-1.81,0-1-.26-1.29-.26-1-1-1-1.55,1-.77,1-.77a17.61,17.61,0,0,0,1.29-1.81c.26-.51.52-.25,1-.77a2.78,2.78,0,0,0,.78-1c.25-.52,0-.52-.26-.78s0-.77-.26-1.8.26-1,.26-1,.51-1.81.77-2.59,1-1,1.81-2.06,0-.26,1-1.29,0-1.29,0-1.29a5.76,5.76,0,0,1-1.29-1.29c-.26-.51-.77-.51-.77-.77V316.2c0-.52.51-.78.77-1.29a4.38,4.38,0,0,0,.26-1.81c0-.51.26-.51.26-.77s.26-2.07.26-3.1-.26-1-.52-2.32-.52-.52-1-.77a5.8,5.8,0,0,0-1.81-.26l-1,2.32a5.48,5.48,0,0,1-.26,1.55c-.26.77,0,.77,0,.77l-.51,1.81-.26,2.06s-.52,2.07-.52,2.33-.26,1.8-.26,1.8a11.58,11.58,0,0,1-.52,1.29,9.91,9.91,0,0,0-.77,1.81c0,.25-1.29,1.29-1.54,1.55a.82.82,0,0,1-.52.25h-2.32c-.52,0-.52-.25-.78-2.06s0,0,0-1,0,0-.51-1.29a2.88,2.88,0,0,0-1-1.55c-.26-.26-.78,0-2.07,0s-1,.26-1.29.26-1,.77-1.29,1-.78,1.29-1.29,1.81,0,1.28,0,1.28v1.81a8.65,8.65,0,0,0,1,3.1,2.62,2.62,0,0,1,0,2.06l-1.55,2.58c-.77,1.29,0,0-.25,0s-2.07-.52-2.32-1-1.3-.26-1.56-.26a2.64,2.64,0,0,1-.77-.26l-1.81,2.84-2.58,2.58-3.6,6.71-.27.77a8.62,8.62,0,0,1-.25,2.07l-.26.77a9.13,9.13,0,0,1-.52,2.33c-.25.25,0,1.28,0,1.28l.27,1.81h3.35c1.54,0,1-.26,1.54-1s0,0-.26-.78-.25-.51-.51-1.28,0-1,0-1.81.26-1.29.26-2.33.25-.25.25-.25a6.65,6.65,0,0,1,2.07.25,3.69,3.69,0,0,0,1,.52s1.55,1,1.81,1.29a11.17,11.17,0,0,0,1.81,1.81c.77.52.77.26,1.54.52s.78.51.78.51l.25,1.55v2.06a3.75,3.75,0,0,1-.51,1h-2.32a8.78,8.78,0,0,0-3.36.52c-1.8.52-1.54.77-1.8,1s-.78,1.55-1,1.81.26,1.55.26,1.8.78.26.78.26a4.74,4.74,0,0,0,2.06,0c1-.26,1.29.78,1.8,1a3.7,3.7,0,0,0,2.33-.25c.51-.26.51,0,.51,0l3.36-.52a3.17,3.17,0,0,0,1-1,9,9,0,0,1,1.55-.26c.51,0,.25-.26.25-.26a3.72,3.72,0,0,0,.52-1c0-.26.26-.52.26-1s-.26-.78-.26-1,.78-.78,2.84-1.81,1,0,1,0a11.44,11.44,0,0,0,.51,1.29,4.22,4.22,0,0,1,0,1.81,10.64,10.64,0,0,1-.51,1.54,9.22,9.22,0,0,1-.78,1.55,10.65,10.65,0,0,0-.78,2.07l.52.26c.52.25,2.32,1.54,2.32,1.54l2.32,2.07-1,3.61-1,3.35a7.58,7.58,0,0,0-.51,2.07,10.6,10.6,0,0,1-.52,2.32,6.23,6.23,0,0,0,1.81.26l2.31,1.81a32.78,32.78,0,0,1,1,3.6V383l-.26,2.84v3.36l-.26,2.84a12,12,0,0,0-.77,2.31v1.81l1.81,2.58a15,15,0,0,1,.25,1.81,16.77,16.77,0,0,1-.51,2.32v1l.51,2.07.52,2.06-.52,2.07,1,1-.25,1.29h6.19a5.29,5.29,0,0,1,1.29-.26,10.69,10.69,0,0,1,2.58,1c.51.26.77,1.81.77,1.81s1.29-1,1.81-1-.52-2.59-.52-2.59l-1-2.06h-.26a11,11,0,0,1-.26-1.29V406a2.77,2.77,0,0,0-.25-1s1.29-.77,1.54-1.54a2.15,2.15,0,0,0-.25-1.81c-.26-.52-1-.52-1.29-.52s-.52-1.29-.52-1.29-.51-1.8-.51-2.06-1-1-1.56-1.55-.25-1.29-.25-1.81-1-1.28-1.29-2.06a11.84,11.84,0,0,0-1-1.8c-.26-.52.25-1.55.25-2.33s.78-1,.78-1.29a10.9,10.9,0,0,0-.52-1.54,10.8,10.8,0,0,1-.51-1.55v-1s2.06-1.29,2.57-1.54.27-1,0-1.55-1.28-1.55-1.28-1.8-1-1.3-1-1.3-.77-.51-1.28-.77a3.22,3.22,0,0,1-.78-.52s-1.81-.25-2.06-.25-.52-.78-.52-.78l.52-.52s1.29-1,1.29-1.29.77-1.28.77-1.54a5.74,5.74,0,0,0-.26-1s.26-2.59.26-2.84.26-2.07.26-2.07l.26-1.29,2.06-.77,1,4.38a11.91,11.91,0,0,0,.25,2.84,5.27,5.27,0,0,1,.51,1.55s.27.77.52.77.52,1,.52,1,.77,1,1,1.29,1,1.29,1,1.29h4.13l.52-.26s.51-.52,1-1,.26-.78.26-.78l.51-1.29a13.7,13.7,0,0,1,.26-2.83c.26-.78.26-1,.52-1s.78-1,.78-1.3,1.28,0,1.28,0l1.29.26a6.81,6.81,0,0,1,.52,1.29,3.72,3.72,0,0,1-.52,1l-.25,1.55-.52,1.81.26,2.06v.78c0,.25-.26.51-.52.77a3.66,3.66,0,0,0-.52,1.55v.77s.26.78.52.78.26,1.28.26,1.28l.52,2.33.25,1.55a11.4,11.4,0,0,0-.25,1.29,6.89,6.89,0,0,0,.51,1.29s1,.77,1,1,1,1,1,1a7.46,7.46,0,0,1,.78,1.55,1.81,1.81,0,0,0,.77,1v1.29l-1.29,2.32-1.8,1.55V399l.51,1.81-.26,1.29,1.29,2.83.26,1.81.26,2.84v1.29a9.21,9.21,0,0,1-.26,1.55,2.54,2.54,0,0,1-.52,1.55,10.37,10.37,0,0,1-1.28,1,8.11,8.11,0,0,0-1.29.77c-.26.26.26,1,.26,1.55s.77,1.29.77,1.29l1.8,1.29,1,2.58a3.08,3.08,0,0,0,1.29.26c.77,0,1.29,1,1.54,1.29a3.4,3.4,0,0,0,1.29.77,6.61,6.61,0,0,1,1.29.51l.78,1-.52.52-.77,1.29-.26.51s-3.1.52-3.35.52a16.14,16.14,0,0,1-2.59.77c-.77,0-.77.26-.77.26l-.26,1.55v2.06l1,.77.78.78.26.52a7.41,7.41,0,0,0,1,1.29l1.55,1.54,1.29,2.33-1.55,2.58-.52.77-1,2.06-.77,1.29v2.33a1.6,1.6,0,0,0,.52,1,.91.91,0,0,1,.25,1l.52.52v2.06s-.77,1.55-1.29,1.81-1,2.06-1,2.06l-1.28.78-2.07,1c-.52.26-.52.51-1.28,1s-.27.52-1,1.55a1.75,1.75,0,0,0,0,2.06v1.29c0,.52,1,.78,1,.78l.76-.26a5.81,5.81,0,0,0,.78-1.29c0-.26,1-1.29,1-1.29h2.32a.91.91,0,0,1,.52.26l2.32,2.32s.52.51.52.77.51,0,1,0,.51-.26.51-.51,1.55,0,1.55,0h1.29c.26,0,.78.77.78.77l1.54,1.81,1,1.8,1.56,3.61h1l.77.52c.78.52.26,1.55.26,1.55l-.78.26-.77,1.54v.52l1.55.52v1s.78,2.06,1,2.58a2,2,0,0,0,1,.77l.26,1.29,1.55.77.26,1.81-.26,1.29.26,3.61s1,0,1.29-.25,1.29,0,1.55,0h1.81l2.31,1.28-.35.89,2.93.15,1-.26s.77-.78.77-1v-.52l1-1.29a8.39,8.39,0,0,0,2.06-1.54c.27-.52,1.56-.52,1.81-1s1.81-.26,1.81-.26h1.81l2.58-.25.51-.52,2.07-.77s1.28,0,1.54-.26a24.26,24.26,0,0,1,2.33-.78,8.24,8.24,0,0,0,1.81-1.29c.51-.51.77-.26,1-.77a5.54,5.54,0,0,1,1.28-1.55c.78-.77,0-.77-.51-1.8s0-1.29,0-1.81.51-1.29.51-1.81a5.41,5.41,0,0,1,.78-1.8c.26-.52,1-1.29.77-2.07s.77-1.29,1-2.32,3.1-.52,3.1-.52a10.77,10.77,0,0,1,2.32-.51c.78,0,1.29-.52,3.35-1.29s1.81-.52,1.81-.52l2.84,2.07.77.25s2.07.52,2.33.52,1.54-1.29,2.06-1.29.78.26,1.29.77a11.32,11.32,0,0,1,1.29,1.81c.52.78,0,1,0,1s3.36-1.55,3.61-1.29l2.07,2.07s-.52,3.61-.78,3.61-.51,2.06-.51,2.32a17.93,17.93,0,0,0,1.55,2.32s1,1.29.77,1.81a1.24,1.24,0,0,0,0,1h3.61c.52,0,.78.52,1,.77a6.47,6.47,0,0,0,1.81,1c.26,0,.77,1,.77,1l.52-.52.77-.77v-1.81c0-.26.77-.26,1.55-.77s.78.51,1.81.77a3,3,0,0,1,.8.25c.22-.1,1.8-.8,2-1.28s.77-.77,1.29-1.29.52.26.52.26l2.83,1.29,1.55-1.29a34.22,34.22,0,0,1,3.09,1.55,6.65,6.65,0,0,0,2.07.25s2.06-1.54,2.06-1.8.78-1.55.78-1.8,1.8,0,1.8,0a24,24,0,0,0,3.36-1l.51-.51.52-.78a3.69,3.69,0,0,1,1,.52,1.28,1.28,0,0,0,.78.26l1.28-.26,2.07-.78,1.81,2.07,1,1.8-.26,2.32a3.83,3.83,0,0,1,0,1.81,1.77,1.77,0,0,0,0,1.29,15.06,15.06,0,0,0,1,2.07,23.68,23.68,0,0,1,1.29,2.58s.26,1.28.26,1.54a6.07,6.07,0,0,1-.52,2.07c-.26.26,0,1,0,1.29s2.07,1.55,2.07,2.06v.77l4.13.52,2.32-1.8,1,1s1.29,1.55,1.29,2.06a3.13,3.13,0,0,0,.52,1.29s2.06,1.81,2.06,2.58v.77l3.35.26,1.81.52,2.32-.26s2.58-.52,2.84-1,.77-.26,1-1.29a5.62,5.62,0,0,0,.26-2.06,9.07,9.07,0,0,0-.26-1.81v-1.81a8.2,8.2,0,0,1,1-1.54l2.32-.26.78,1.55,1.55,1s2.32.51,2.84.51.51.52.51,1.55v2.07c0,.77,1.81.77,2.07.51s.51-.25.77-1.29.52-.77.77-1.55,0-.77,0-1,1-.52,1.29-.77l.78-.78-.52-1a1.26,1.26,0,0,0-.26-.77,14,14,0,0,0-1-1.55c-.51-.51-.26-.78-.26-.78l1.29-1.29c.26-.25.26-1,.26-1a12,12,0,0,0,2.84-.25s-1.81-3.1-2.84-4.39,0-1.81.52-2.32,0-1.55,0-2.32-1-1.81-1.55-2.32a11.38,11.38,0,0,1-1.29-2.07v-2.84c0-1,2.06-.51,2.06-.51s-.77-3.88-1.54-4.39,0-.52-.52-2.06-.26-2.07-.26-2.07a12.74,12.74,0,0,0,.78-3.09c0-1-1.29-2.33-1.29-2.33a19.49,19.49,0,0,1-2.58-1.29c-1.29-.77-.52.26-1.29,0s-1.3-2.84-1.3-2.84l-2.83-.77-4.13.77" transform="translate(-160.82 -16.45)"/>
      <path class="cls-1" d="M432.94,453.7" transform="translate(-160.82 -16.45)"/>
      <path class="cls-1" d="M434.74,450.35" transform="translate(-160.82 -16.45)"/>
      <line class="cls-1" x1="274.73" y1="441.65" x2="274.31" y2="440.98"/>
    </g>
    <g id="loca04_gangwon">
      <path class="cls-1" d="M405.29,65.54l1.06-1.62,7-2.06a7.29,7.29,0,0,1,2.84.51c.78.52,2.07.26,2.07,1s0,1,.51,1.28,4.13-1.54,4.13-1.54l2.84-.52.77-.77.78-2.84,1.29-.52s1.55,0,1.8.26,1-.26,1.55.26a7.28,7.28,0,0,0,2.07,1,9.88,9.88,0,0,1,1.54.52c.52.26,1.81.26,2.33,1.29a25.18,25.18,0,0,1,.77,2.58,14.7,14.7,0,0,0,2.32,2.06h1.55s2.06-1.29,2.06-1.55V62.37l.26-1a15.3,15.3,0,0,1,3.87-1c1.29,0,2.84-.26,3.1-.26a7.81,7.81,0,0,1,2.84.78c.77.51,3.35.77,3.87,1s2.84.77,3.35,1a12.46,12.46,0,0,0,1.29.52s2.32,1.8,2.58,2.06a12.45,12.45,0,0,0,4.39,0c.25-.26,7.74-2.84,8-2.84s4.12-.51,4.12-.51l3.36-.26s3.87-1.29,4.13-1.29,5.67-1,5.67-1l3.36-.52s2.58.77,2.84.77a8.2,8.2,0,0,1,1.54,1l3.1,1.29,4.13,1a11.4,11.4,0,0,1,2.06,1.29c.52.51,1.8,2.06,2.06,2.06s2.07,2.07,2.33,2.07,3.09.77,3.09.77l2.59-.77,2.32-1.81.25-1.29s1.81-.52,2.07-.26a14.19,14.19,0,0,0,1.8,1v.51L533,69.34l9.81-.77,3.87,1.28,3.87,1,2.32-.78s4.38,0,4.38-.26,4.39-1.8,4.39-1.8l2.84-1.8,2.58-2.07,2.06-1.29,3.62-.77s3.09-1,3.09-1.29a34.37,34.37,0,0,1,1.55-3.1,12.59,12.59,0,0,0,.77-1.81c0-.26,1.29-3.09,1.29-3.09l1-1,3.88-1,2.32-2.07,3.61-6.45,1.81-5.93.25-6.2V23.67l.52-3.61,2.32-1.29L599,16.58l3.36,7,2.06,3.09.78,2.06v1.55l.77,1.81,1,1.8,1,1.81v3.87l1,1.81v2.06l-.51,1L608.24,46,608,47.28l1,.52,1-.52h1.29l1,.52.52,1-.26,1-.26,1-.26.78-.51.51v.52l.51,1.29,3.48,6.32,2.84,3.35v3.62l1,1.55,2.06,3.09v4.65l2.06,3.35,1,5.93,2.83,4.65,1.29,3.35L630,97.47l.52,3.35V107l1.81,4.64,3.09,3.62,5.42,9.28,3.87,8.26,3.87,5.42,1.55,3.87,5.93,10.58,2.84,3.61,2.58,4.39v4.13l1.29,3.09L667.2,172a24.13,24.13,0,0,0,4.9,6.71c3.09,2.84,11.35,12.64,11.35,12.64l1.29,3.1,4.64,5.93,2.33,3.87v3.61L690.42,210l1.29,4.12,4.38,5.16,2.84,2.84h1.29l1,5.94-2.32,1.54,2.32,2.58v3.62l1.81,4.12,3.1,2.33,2.84,4.9,2.84,6.71,4.12,5.67,2.32,2.07,1,4.64,1.56,5.42v2.07l3.6,2.06v2.32l3.1,3.87,1.55,3.87,2.32,2.58-1.29,3.87v7l1.29,5.67,1.79,1.79s-5.66,2.08-5.66,2.34a59,59,0,0,1-4.9,3.61l-3.1.52A11.16,11.16,0,0,0,718,315c0,.25-1,1-1.3,1.55s-2.57.25-2.57.51-1,1.29-1.29,1.8a4.75,4.75,0,0,0-.52,2.07,8.92,8.92,0,0,1,0,2.58c-.26.78,0,.52-.26,1.81a1.89,1.89,0,0,1-1.29,1.54l-4.13-1s-.51-.51-.77,0-1.81.52-1.81.52l.26-1s-2.32-1.81-2.32-2.58,1.29-2.07-.52-3.1a9.2,9.2,0,0,0-3.35-1.29c-.26,0-1.55.51-2.07-.26s-3.61-2.32-3.61-2.32-2.83-.77-2.83,0-2.07,1.29-2.33,2.06-2.58,1.55-2.58,1.55l-.52.78-2.32-1.3-3.35-1H677s-1.54-1.54-2.06-1.54a7.94,7.94,0,0,1-1.81-.52.36.36,0,0,0-.52,0,3.45,3.45,0,0,1-2.32-.52c0-.25-1.29-.77-1.29-.77l-1.55-1s-1.8.77-1.8,1-1.81,1.29-1.81,1.29l-2.06,2.32s-1,1.29-1,1.81a1.54,1.54,0,0,1-.78,1.55c-.77.51-1.55,1-2.06.77s-4.39-1.55-4.39-1.55h-1c-.26,0-1.81-1-1.81-1.29s-.77-2.58-.77-2.58l-2.58-1-2.58-1.55s-.26-1-.52-1a11.05,11.05,0,0,0-1.8,1l-.52,2.58s-.78.52-.78,1-.76.78-1.28,1.29-.51-.51-.51.52v2.32l-2.84-.51-4.13-.52-4.91-2.84s-1-.51-2.83-1.29a27.37,27.37,0,0,0-4.65-1.29l-1.55-1.8s-1.8-1.29-2.58-1a38.06,38.06,0,0,1-4.38.52l-2.07-2.06s-2.84-1-3.09-1H605a31.87,31.87,0,0,1-2.33-3.09,22.38,22.38,0,0,0-2.06-2.58l-.51-.52h-2.84a27.57,27.57,0,0,0-4.65,1.29l-3.1.52-1.8-1.81L585.41,301l-1.81-2.58-.51-1.8-3.1-.78s-4.39.52-4.13.26-2.06-.26-2.06-.26l-2.33,2.07s-1.8,1-2.32.26a18.28,18.28,0,0,0-2.32-2.33l-1.29-1.29s.26-2.06.77-2.06a7.43,7.43,0,0,0,3.1-1,17.43,17.43,0,0,0,1.55-2.32l2.07-1.55.51-1.55s2.06-.77,2.06-1a10.89,10.89,0,0,0-1.29-1.81s-2.32-1-2.58-.77a33.64,33.64,0,0,1-3.87,1.29l-3.61-1.29-1.55-1-2.06-1-1.55-2.32s-1-1.29-1.55-1-2.58.26-3.09,1-2.33.77-2.33,1.55a1.81,1.81,0,0,1-.77,1.54,9.66,9.66,0,0,1-1.29,1,13.58,13.58,0,0,1-2.58-1.55c0-.26-1.81-.77-1.81-.77l-.77-1.55s-1.29.26-1.29.77-.26,1.81-.26,2.06-.77.78-1,1.3-2.32,1.54-2.84,1.8a14.14,14.14,0,0,0-3.1,1,10.37,10.37,0,0,1-3.35,1,6.54,6.54,0,0,0-1.29-.52c-.26,0-2.06-.77-2.06-1s.51-2.84.51-2.84v-1s.78-.78.78-1.29-2.59-2.58-2.59-2.58l-.51-2.58-2.06-.77-5.16-.52-4.39,1.55a27.24,27.24,0,0,0-2.32,2.84c0,.25.25,1.54.25,1.8a18.67,18.67,0,0,0,1,3.61c.26.26,0,2.33,0,2.58a24.26,24.26,0,0,1-.78,2.33l-3.35.51s-1.81,1-2.06,1.55l-.52,1a11.52,11.52,0,0,0-1.8-1.55c-.26,0-2.07-.51-2.07-.51a2,2,0,0,0-1.29.51s-.52.78-.77.78h-2.33s-1.29-1-1.54-.78-2.84.52-2.84.78-.52,1-.52,1.29-2.58.51-2.58.51-1-.51-1-.77-1.81-.26-1.81-.26l-1.29-3.35a30.2,30.2,0,0,1-1.28-2.84,23.24,23.24,0,0,0-1.75-2.64l1-1,1-7-.25-4.13,2.57-2.32.78-1.29-.78-1.8s.52-1,1.29-3.1,0-2.58,0-2.58l-.51-5.67L491,250l3.1-3.1s1-1.8,1.81-3.1,2.84-7,2.84-7l.51-2.06s-1.29-3.1-.77-5.42-2.07-2.33-2.84-2.33-2.58-3.35-2.58-3.35,3.87-1.8,4.65-2.32.51-3.1.51-3.1h3.1l5.42-3.61s-2.84-1.55-3.36-1.81a14.21,14.21,0,0,1-3.1-4.64c-.51-1.55-4.38-.77-5.41-1.29a27.66,27.66,0,0,0-4.91-1l-5.41-3.1-5.94-3.87s-2.58-4.13-3.35-4.38-3.87-1.55-3.87-1.55l-2.06,2.58h-6.2v-4.39l1.55-1.55.51-4.64.78-2.58.77-2.84L465.17,178h-4.64l-2.32-2.06,3.1-1.81,1.8-2.32,1.55-2.84-3.1-1.29,1.55-3.86v-6.2l3.61-2.32a2.86,2.86,0,0,0,.78-1.81c0-1,3.61-1,5.41-1.8a24.11,24.11,0,0,0,4.65-3.36,18.81,18.81,0,0,0,0-3.87c-.26-.77,0-1.29,0-2.58s-1-1.29-1-1.29v-5.93l-5.42-1.55a5.73,5.73,0,0,1-2.06-2.58c-1-2.07,0-2.84,0-2.84l-2.84-2.32-7.49-2.84-3.35-4.13-.77-4.13.52-2.58v-3.09A3,3,0,0,1,456.4,107c.78-.51,0-.77,0-.77s-.77-1.29-1-1.81a3.06,3.06,0,0,1,0-1.55l-.51-1.55-2.58,1.29-.78,1-1.81-.52-1.8-.78s-3.1.52-4.13.52-.77-.26-.77-.26-2.58.78-2.84.78-1,1-1,1h-2.07a9.78,9.78,0,0,1-1.29-1.55,8.14,8.14,0,0,0-1.29-1.55c-.25-.26-2.32-1-2.84-1.8a9.57,9.57,0,0,1-.77-2.84s.52-1.55.77-2.32,1-4.13,1-4.13l-1.28-2.07-1.81,1.55-3.87,2.84s-3.87,1-4.39.77-.77-.77-1-1a14.28,14.28,0,0,1-1.55-2.83,7.51,7.51,0,0,1-.51-2.33c0-.77-1-2.32-1.29-3.35s-1.81-2.58-1.81-2.84-1.55-3.1-1.81-4.13-2.58-1-2.58-1a26.61,26.61,0,0,1-3.09-1.29,15,15,0,0,1-.52-3.35c0-.26.52-2.58.52-2.84a26.83,26.83,0,0,0-2.55-2.77" transform="translate(-160.82 -16.45)"/>
    </g>
    <g id="loca03_geongi">
      <path class="cls-1" d="M352.18,328.9l1-1.81,1-2.58.26-3.09-1.81-1.55-2.32-2.32s-1.81-1.55-2.06-1.81-1.81-1.55-1.81-1.55l-.26-2.06v-2.07l-1-2.06-1.29-.26-2.07-.51a11.77,11.77,0,0,1-1.28-.52c-.52-.26-2.33-1-2.33-1s0-1.81.26-1.81,1.29-.26,2.07-.26h3.87v-.51a14.15,14.15,0,0,0-2.33-1.81l-.77-.77-3.35-.78s-1.81-.51-1.81-.77-1.29-.77-1.55-1-1.29-1.55-1.29-1.55.52-.26.52-.52.77-1,.77-1l1-.26a5.68,5.68,0,0,1,1.55-.25c.26,0,1.55-.52,1.55-.78s0-1-.52-1.29a3.47,3.47,0,0,1-.77-.51l-1-2.07V287.1c0-.51.77-5.16.77-5.16s.26-1.55.52-1.55,3.35-.51,3.35-.51,1.81-.26,2.07-.26a11,11,0,0,0,1.29-.26v-1.55l-1-1.54-.52-2.07-.52-2.84-2.58,1.29-1,.52s-2.07-.26-2.07,0a5.6,5.6,0,0,1-.77,1.29s0,.77-.26.77-1.55,0-1.55.52.26,1.29,0,1.55a9,9,0,0,1-1,.77,4.7,4.7,0,0,0-1,.77c-.51.52-1.55.52-1.8,1s-1.55,1-1.81,1.28,0,.26-.78.26-1.8.26-1.8,0-.52-.51-.78-.77-.77-.52-.77-.77-.52-.78-.52-1.29a5.17,5.17,0,0,1,.26-1.29l.77-1s1-1.29.52-1.55-.77-.78-1.29-.78a11.87,11.87,0,0,1-1.29-.25,1.32,1.32,0,0,1-1.29-.26c-.51-.52-.51-.52-.51-.78a2.53,2.53,0,0,1,.26-.77l.77-2.32s.77-1.81,1-1.81,1-.52,1.29-.52,0,0,.26-.25a2,2,0,0,0,.51-1v-2.06s.26.26-.26-1.55-.51-1.55-.51-1.55l-1-1.54a1.28,1.28,0,0,1,.26-.78c.25-.26-.26-.77.51-1.29s1.29-1,1.55-1a10.65,10.65,0,0,0,1.55-.52s1.29-.26,1.55-.26a2.81,2.81,0,0,1,1.29.26,8.2,8.2,0,0,0,1.55.78,7.39,7.39,0,0,0,2.32.51h2.06a9,9,0,0,1,1.55.26l1.55,1.29s1,.26,1.29,1,.51,1.81,1,1.55a2.61,2.61,0,0,0,1-1.29,5.25,5.25,0,0,0,.52-1.55,12,12,0,0,1,1.29-2.58c.26-.26.51-1.29.77-1.29s.52-.26.78-.26h1.54l2.33.26h1.28s.52-.51.26-1-.51-.78-.77-1.3-1-1.8-1-1.8-.52-.78-.78-.78-3.09-.26-3.09-.26l-3.1-.77-2.06-.77-2.58-1.55-2.07-1.81-2.83-1.55L331,241.43l-.52-1.55-.25-1.28,2.06-1.55,3.1-2.07,1-1-.52-1.55a1.93,1.93,0,0,0-1.55-.77c-1,0-3.09-1-3.35-1h-2.84s-2.06-.26-2.06-.52a25.22,25.22,0,0,0-1.3-2.84,28.74,28.74,0,0,0-2.06-2.57s-.51-2.59-.51-2.84a3.79,3.79,0,0,0-1.55-1.3c-.26,0-2.84-.77-2.84-1a8.43,8.43,0,0,1,.77-2.32,11.29,11.29,0,0,1,2.59-.51s.25-.26-.26-1.29a4.27,4.27,0,0,0-1.29-1.55v-.78l.52-1.29s0-.51,1-.51,2.32-.52,2.83-.52,1-.52,1.29-.77-.14-.33-.4-.85-.09-1.58-.6-1.58-.28-.79-1.06-.93a4.58,4.58,0,0,0-3.09.52l-.52-.26a3.13,3.13,0,0,1-.52-1.29c0-.52-.52-.77,0-1.29a16.87,16.87,0,0,0,1.55-3.1l-.49-1.61-.83-1.73-2.11-4.39s-.44-.26-1-.52-.77-1-1.8-1a7.61,7.61,0,0,1-2.32-.51s-1.56-1.29-1.3-1.81L312.7,186l-.51-4.38,1.28-5.17-1.28-3.86v-5.94l1.54-3.61-1-4.9.52-1.55,2.06-.26a1.33,1.33,0,0,1,1.29.26,7.76,7.76,0,0,0,1.55.77,12.33,12.33,0,0,1,1.8.78,17.32,17.32,0,0,0,2.07,1,8.16,8.16,0,0,0,2.32.25c.26,0,1.55,0,1.55-.25s1.8-1,1.8-1.29.26-1,.26-1.29.78-1.29,1-1.29a.87.87,0,0,0,.52-.26l.78-.26,1.8-.26,1.29-2.06.52-1.81,1-3.61,1.55-.77a16.66,16.66,0,0,0,1.55-1l.77-1.29a11.26,11.26,0,0,0,.26-1.3,10.9,10.9,0,0,0-.52-1.54l-.26-1.55,1.29-5.68s.52-2.32.52-2.58a30.08,30.08,0,0,0-1.29-2.84l-1.29-1,.52-3.61a11.05,11.05,0,0,1,1.8-1c.26,0,3.1-.52,3.62-.26a21.16,21.16,0,0,0,3.35.52l1-.78a5.32,5.32,0,0,1,1.81-1.8,5.6,5.6,0,0,0,1.8-1.29,20.39,20.39,0,0,1,2.07-1.55,24.82,24.82,0,0,1,2.32-1c.77-.25.25-.51,2.06-1.28l1.81-.78,1-3.35,1.29-1,3.35-2.07.78-.77a2.88,2.88,0,0,1,1.29-1l.77-.26,1-1,.52-4.91A21.54,21.54,0,0,1,372,97.47c.26,0,4.9-3.1,4.9-3.1l3.36-1.55,1-1.29.77-1s1.56-1,1.81-1.29,1.81-2.84,1.81-2.84l.77-2.32V82.76l.52-2.07.26-1.55.77-1s0-.26.77-.26a7.39,7.39,0,0,0,2.32-.51c.78-.26,2.32-1,2.32-1.29A15.46,15.46,0,0,1,394,72.7c.26-.26,1.55-2.07,2.84-2.59s.51,0,1.29-.51l2.32-1.55,3.1-1.8,1.58-.71a26.83,26.83,0,0,1,2.55,2.77c0,.26-.52,2.58-.52,2.84a15,15,0,0,0,.52,3.35,26.69,26.69,0,0,0,3.1,1.29s2.32,0,2.57,1,1.81,3.87,1.81,4.13,1.55,1.81,1.81,2.84,1.29,2.58,1.29,3.35a7.26,7.26,0,0,0,.52,2.33,13.35,13.35,0,0,0,1.54,2.83c.26.26.52.78,1,1s4.39-.77,4.39-.77l3.87-2.84,1.8-1.55,1.29,2.07s-.77,3.35-1,4.13-.77,2.32-.77,2.32a9.57,9.57,0,0,0,.77,2.84c.52.77,2.58,1.54,2.84,1.8a8.14,8.14,0,0,1,1.29,1.55,9.78,9.78,0,0,0,1.29,1.55h2.07s.77-1,1-1,2.84-.78,2.84-.78-.27.26.77.26,4.13-.52,4.13-.52l1.8.78,1.81.52.77-1,2.58-1.29.52,1.55a3,3,0,0,0,0,1.55c.26.52,1,1.81,1,1.81s.78.26,0,.77a3.07,3.07,0,0,0-1.29,1.55v3.09l-.52,2.58.78,4.13,3.35,4.13,7.49,2.84,2.84,2.32s-1,.77,0,2.84a5.73,5.73,0,0,0,2.06,2.58l5.42,1.55v5.93s1,0,1,1.29-.26,1.81,0,2.58a19.56,19.56,0,0,1,0,3.87,24.27,24.27,0,0,1-4.64,3.36c-1.81.77-5.42.77-5.42,1.8a2.86,2.86,0,0,1-.78,1.81l-3.61,2.32v6.2l-1.55,3.86,3.1,1.29-1.55,2.84-1.81,2.32-3.09,1.81,2.32,2.06h4.65l1.54,1.55-.77,2.84-.77,2.58-.52,4.64-1.55,1.55v4.39h6.19l2.07-2.58s3.09,1.29,3.87,1.55,3.35,4.38,3.35,4.38l5.94,3.87,5.41,3.1a27.41,27.41,0,0,1,4.9,1c1,.52,4.91-.26,5.42,1.29a14.21,14.21,0,0,0,3.1,4.64c.51.26,3.35,1.81,3.35,1.81l-5.42,3.61h-3.09s.26,2.58-.52,3.1-4.64,2.32-4.64,2.32,1.8,3.35,2.58,3.35,3.35,0,2.84,2.33.77,5.42.77,5.42l-.51,2.06s-2.07,5.67-2.84,7-1.81,3.1-1.81,3.1L491,250l-.26,3.36.52,5.67s.76.51,0,2.58-1.3,3.1-1.3,3.1l.78,1.8-.78,1.29-2.58,2.32.26,4.13-1,7L484.79,283l-4.9,3.1a14.93,14.93,0,0,0-1.29,2.84c0,.51-.52,3.09-.52,3.09h-4.64s-.26-3.09-.77-3.35-3.36,1.81-3.36,1.81a25.43,25.43,0,0,0,0,4.38c.26.52.52,2.58,0,2.58s-4.12,1.29-4.12,1.81-1.3,2.32-1.3,2.84-1.8,1-2.06,1.8-2.32,1.81-2.32,1.81l-2.58,2.58h-1l-3.36-2.32s-3.87.77-3.61,1-2.06-.52-2.06-.52l-2.06-.25-4.4,3.61s4.91,0-.51,1.8l-5.42,1.81-1.81,1.29s-.77-1.55-.77,0-2.06,4.12-2.06,4.64-2.07,1.81-2.07,1.81-2.06,3.1-4.39,3.1H419l-3.87,1.28-.51,2.84v1.55c0,.52-.27,2.58-.27,2.58l-2.58-1.29s-1.28-1-1.28-1.55a16.29,16.29,0,0,0-.77-2.58s-2.59-.51-2.59-.26-.25,1.3-.77,1-2.07-1-2.07-1.29-1.8-1.55-1.8-1.55l-1.29-1.29-1.29-3.1-3.1-1.55c-.52-.26-1.8-.26-2.06-.51s-2.58-1.81-2.58-1.81l-2.84-.26a20.34,20.34,0,0,0-3.36.78,16.29,16.29,0,0,0-1,2.06l-2.06,1-3.62,1-5.16-.52-2.31,1.55-3.36-.77-3.36,1.54-5.93,1.55-3.86,2.06-3.1,2.07" transform="translate(-160.82 -16.45)"/>
    </g>
    <g id="loca02_incheon">
      <path class="cls-1" d="M317.17,193.67c.52.26,1.31,2.29,1.31,2.29l1.18,2.46.52,1.08.52,1.68a16.87,16.87,0,0,1-1.55,3.1c-.52.52,0,.77,0,1.29a3.13,3.13,0,0,0,.52,1.29l.52.26a6.88,6.88,0,0,1,2.37-.62c1.81-.26.3-.12.82-.12s1.46,2.27,1.71,2.78.51.54.25.8-.77.77-1.29.77-1.8.52-2.83.52-1,.51-1,.51l-.52,1.29v.78a4.27,4.27,0,0,1,1.29,1.55c.51,1,.26,1.29.26,1.29a11.29,11.29,0,0,0-2.59.51,8.43,8.43,0,0,0-.77,2.32c0,.26,2.58,1,2.84,1a3.79,3.79,0,0,1,1.55,1.3c0,.25.51,2.84.51,2.84a28.74,28.74,0,0,1,2.06,2.57,25.22,25.22,0,0,1,1.3,2.84c0,.26,2.06.52,2.06.52H331c.26,0,2.32,1,3.35,1a1.93,1.93,0,0,1,1.55.77l.27.82.5-2.62,2.07-.52.26-2.32,1.55-1.55,1.28-1.54.52-1a13.12,13.12,0,0,1,.26-2.58l1-.78v-.51l-.25-1.55-.26-.77a5.88,5.88,0,0,0-1.3-1.29c-.51-.26-1.54-1.81-2.06-2.07s-.26-1.29-.26-1.8v-4.13h2.58l.52-2.07.78-2.32,1.54-1.29.26-2.06.52-1.29,2.57-3.35s-1.54-.78-1.8-.26-3.09,0-3.09,0l-3.62-2.84L337,191.12a11.2,11.2,0,0,1-1.54-2.58c0-.51-2.07-2.06-2.84-2.58s-2.32-2.06-3.1-2.58-2.58,1.29-2.84,1.29a15.75,15.75,0,0,0-2.06,1v1.81l-3.35,1.55-2.33,1-1.8,1S316.83,193.44,317.17,193.67Z" transform="translate(-160.82 -16.45)"/>
    </g>
    <g id="loca01_seoul">
      <path class="cls-1" d="M405.84,204v-.77l-.25-1.81-2.33.52s0,.25-1,.77a14.73,14.73,0,0,1-3.61.77,1,1,0,0,0-1.3,0,18.49,18.49,0,0,1-1.8,1v-2.32a5.44,5.44,0,0,1,0-2.06,20.56,20.56,0,0,1,1.55-2.06l.78-2.33-.53-2.06L396,191.86l1-2.06a.71.71,0,0,0,0-1,9.56,9.56,0,0,0-2.84-1l.52-2.58.26-3.62-.78-1.29-1.29-1.55-2.84.52s-1.81,0-2.06-.26-1.81-1.29-1.81-1.29l-1.8-.77s-1.81.26-1.81.77-.77,1.55-.77,2.07-1.29,1.8-1.29,1.8a4,4,0,0,0-.78,1.81,5.68,5.68,0,0,1-.77,2.06,5.32,5.32,0,0,0-.51,1.55c0,.52,1.28.78,0,1a13.21,13.21,0,0,1-2.33.26,3.87,3.87,0,0,0-.51-1c-.26-.26-.78-1.29-1-1.29s-1.29-1.55-1.29-1.55,0-1.29-.51-.78-3.1.78-3.1.78l-1.29,1.29s-.77,0-.77.26a12.5,12.5,0,0,1-.78,1.81,5.35,5.35,0,0,0-.25,1.29c0,.51-.78,1-.78,2.06v3.1c0,.51,0,1.29-.52,1.54a15.6,15.6,0,0,0-1.54,1l-1-.52h-1.28l-.78.77-1.29-.25h-1.55l-3.09-.52-2.07-1-.77-1-1-.26a14.63,14.63,0,0,0-1.8,1,3.69,3.69,0,0,0-.52,1l-.26.78-2.25,2.93-.84,1.71-.26,2.06h1.81l1.29.78,1.8.51,1.55.52v1.55l.78,2.84v1.8l-1.55,1.29-.52,1.81,1.29,2.07,1.81.51,4.13-1.29,1.8,1.29.52,2.32s1.29.77,1.29,1,.77,2.58.77,2.58.52,1.81.52,2.07,1.8,1,2.06.77a26.85,26.85,0,0,1,2.84-1.29,14.7,14.7,0,0,1,2.06,1,7.88,7.88,0,0,0,2.33.51c.26,0,2.57-1,2.83-1s3.36-1.81,3.36-1.81a.5.5,0,0,1,.51-.51,11.82,11.82,0,0,1,2.07.51l1.55-.26,1-1.29a3.2,3.2,0,0,1,.52,1.29v2.33l.51,1.54.52.78a11.4,11.4,0,0,0,1.29.25,12.79,12.79,0,0,0,3.09-.51,23.07,23.07,0,0,1,2.32-1.29v-.51l1.29-1.81.78-.26,2.06.26,1-.52.78-.26s.52-1,.78-1a8.2,8.2,0,0,0,1.54-1l1.81-.52.52-2.83-1-1.81-1.55-1,.52-.78,1.55-1.8a6.81,6.81,0,0,0,.52-1.29,5.2,5.2,0,0,1,1.54-1.81c.26,0,1-1,1-1l1.3-.52.51-.51.52-.52v-.52Z" transform="translate(-160.82 -16.45)"/>
    </g>
  </g>
</svg>
